%TF.GenerationSoftware,KiCad,Pcbnew,10.0.3*%
%TF.CreationDate,2026-07-04T09:26:34-05:00*%
%TF.ProjectId,calc-project,63616c63-2d70-4726-9f6a-6563742e6b69,rev?*%
%TF.SameCoordinates,Original*%
%TF.FileFunction,Soldermask,Bot*%
%TF.FilePolarity,Negative*%
%FSLAX46Y46*%
G04 Gerber Fmt 4.6, Leading zero omitted, Abs format (unit mm)*
G04 Created by KiCad (PCBNEW 10.0.3) date 2026-07-04 09:26:34*
%MOMM*%
%LPD*%
G01*
G04 APERTURE LIST*
%ADD10C,2.000000*%
%ADD11C,2.100000*%
%ADD12R,1.270000X1.270000*%
%ADD13C,1.270000*%
%ADD14R,1.700000X1.700000*%
%ADD15C,1.700000*%
G04 APERTURE END LIST*
D10*
%TO.C,SW31*%
X46750000Y-177750000D03*
X53250000Y-177750000D03*
X46750000Y-182250000D03*
X53250000Y-182250000D03*
%TD*%
D11*
%TO.C,H5*%
X49000000Y-120000000D03*
%TD*%
D10*
%TO.C,SW14*%
X58750000Y-141750000D03*
X65250000Y-141750000D03*
X58750000Y-146250000D03*
X65250000Y-146250000D03*
%TD*%
%TO.C,SW35*%
X94750000Y-177750000D03*
X101250000Y-177750000D03*
X94750000Y-182250000D03*
X101250000Y-182250000D03*
%TD*%
%TO.C,SW8*%
X58750000Y-129750000D03*
X65250000Y-129750000D03*
X58750000Y-134250000D03*
X65250000Y-134250000D03*
%TD*%
%TO.C,SW29*%
X94750000Y-165750000D03*
X101250000Y-165750000D03*
X94750000Y-170250000D03*
X101250000Y-170250000D03*
%TD*%
%TO.C,SW2*%
X58750000Y-107750000D03*
X65250000Y-107750000D03*
X58750000Y-112250000D03*
X65250000Y-112250000D03*
%TD*%
%TO.C,SW17*%
X94750000Y-141750000D03*
X101250000Y-141750000D03*
X94750000Y-146250000D03*
X101250000Y-146250000D03*
%TD*%
%TO.C,SW22*%
X82750000Y-153750000D03*
X89250000Y-153750000D03*
X82750000Y-158250000D03*
X89250000Y-158250000D03*
%TD*%
%TO.C,SW26*%
X58750000Y-165750000D03*
X65250000Y-165750000D03*
X58750000Y-170250000D03*
X65250000Y-170250000D03*
%TD*%
%TO.C,SW33*%
X70750000Y-177750000D03*
X77250000Y-177750000D03*
X70750000Y-182250000D03*
X77250000Y-182250000D03*
%TD*%
%TO.C,SW7*%
X46750000Y-129750000D03*
X53250000Y-129750000D03*
X46750000Y-134250000D03*
X53250000Y-134250000D03*
%TD*%
%TO.C,SW30*%
X106750000Y-165750000D03*
X113250000Y-165750000D03*
X106750000Y-170250000D03*
X113250000Y-170250000D03*
%TD*%
%TO.C,SW1*%
X46750000Y-107750000D03*
X53250000Y-107750000D03*
X46750000Y-112250000D03*
X53250000Y-112250000D03*
%TD*%
D11*
%TO.C,H4*%
X115000000Y-187000000D03*
%TD*%
D10*
%TO.C,SW3*%
X70750000Y-107750000D03*
X77250000Y-107750000D03*
X70750000Y-112250000D03*
X77250000Y-112250000D03*
%TD*%
D11*
%TO.C,H3*%
X45000000Y-187000000D03*
%TD*%
D10*
%TO.C,SW19*%
X46750000Y-153750000D03*
X53250000Y-153750000D03*
X46750000Y-158250000D03*
X53250000Y-158250000D03*
%TD*%
%TO.C,SW28*%
X82750000Y-165750000D03*
X89250000Y-165750000D03*
X82750000Y-170250000D03*
X89250000Y-170250000D03*
%TD*%
%TO.C,SW16*%
X82750000Y-141750000D03*
X89250000Y-141750000D03*
X82750000Y-146250000D03*
X89250000Y-146250000D03*
%TD*%
%TO.C,SW36*%
X106750000Y-177750000D03*
X113250000Y-177750000D03*
X106750000Y-182250000D03*
X113250000Y-182250000D03*
%TD*%
%TO.C,SW25*%
X46750000Y-165750000D03*
X53250000Y-165750000D03*
X46750000Y-170250000D03*
X53250000Y-170250000D03*
%TD*%
%TO.C,SW34*%
X82750000Y-177750000D03*
X89250000Y-177750000D03*
X82750000Y-182250000D03*
X89250000Y-182250000D03*
%TD*%
%TO.C,SW12*%
X106750000Y-129750000D03*
X113250000Y-129750000D03*
X106750000Y-134250000D03*
X113250000Y-134250000D03*
%TD*%
D12*
%TO.C,J3*%
X61540000Y-96550000D03*
D13*
X64080000Y-96550000D03*
X66620000Y-96550000D03*
X69160000Y-96550000D03*
X71700000Y-96550000D03*
X74240000Y-96550000D03*
X76780000Y-96550000D03*
X79320000Y-96550000D03*
X81860000Y-96550000D03*
X84400000Y-96550000D03*
X86940000Y-96550000D03*
X89480000Y-96550000D03*
X91977257Y-96550000D03*
X94560000Y-96550000D03*
%TD*%
D10*
%TO.C,SW10*%
X82750000Y-129750000D03*
X89250000Y-129750000D03*
X82750000Y-134250000D03*
X89250000Y-134250000D03*
%TD*%
%TO.C,SW4*%
X82750000Y-107750000D03*
X89250000Y-107750000D03*
X82750000Y-112250000D03*
X89250000Y-112250000D03*
%TD*%
%TO.C,SW18*%
X106750000Y-141750000D03*
X113250000Y-141750000D03*
X106750000Y-146250000D03*
X113250000Y-146250000D03*
%TD*%
%TO.C,SW23*%
X94750000Y-153750000D03*
X101250000Y-153750000D03*
X94750000Y-158250000D03*
X101250000Y-158250000D03*
%TD*%
%TO.C,SW11*%
X94750000Y-129750000D03*
X101250000Y-129750000D03*
X94750000Y-134250000D03*
X101250000Y-134250000D03*
%TD*%
%TO.C,SW27*%
X70750000Y-165750000D03*
X77250000Y-165750000D03*
X70750000Y-170250000D03*
X77250000Y-170250000D03*
%TD*%
%TO.C,SW13*%
X46750000Y-141750000D03*
X53250000Y-141750000D03*
X46750000Y-146250000D03*
X53250000Y-146250000D03*
%TD*%
%TO.C,SW5*%
X94750000Y-107750000D03*
X101250000Y-107750000D03*
X94750000Y-112250000D03*
X101250000Y-112250000D03*
%TD*%
%TO.C,SW32*%
X58750000Y-177750000D03*
X65250000Y-177750000D03*
X58750000Y-182250000D03*
X65250000Y-182250000D03*
%TD*%
%TO.C,SW20*%
X58750000Y-153750000D03*
X65250000Y-153750000D03*
X58750000Y-158250000D03*
X65250000Y-158250000D03*
%TD*%
%TO.C,SW24*%
X106750000Y-153750000D03*
X113250000Y-153750000D03*
X106750000Y-158250000D03*
X113250000Y-158250000D03*
%TD*%
D11*
%TO.C,H1*%
X45000000Y-93000000D03*
%TD*%
D10*
%TO.C,SW21*%
X70750000Y-153750000D03*
X77250000Y-153750000D03*
X70750000Y-158250000D03*
X77250000Y-158250000D03*
%TD*%
%TO.C,SW15*%
X70750000Y-141750000D03*
X77250000Y-141750000D03*
X70750000Y-146250000D03*
X77250000Y-146250000D03*
%TD*%
%TO.C,SW6*%
X106750000Y-107750000D03*
X113250000Y-107750000D03*
X106750000Y-112250000D03*
X113250000Y-112250000D03*
%TD*%
D11*
%TO.C,H2*%
X115000000Y-93000000D03*
%TD*%
D10*
%TO.C,SW9*%
X70750000Y-129750000D03*
X77250000Y-129750000D03*
X70750000Y-134250000D03*
X77250000Y-134250000D03*
%TD*%
D14*
%TO.C,J1*%
X66802000Y-102220000D03*
D15*
X69342000Y-102220000D03*
X71882000Y-102220000D03*
X74422000Y-102220000D03*
X76962000Y-102220000D03*
X79502000Y-102220000D03*
X82042000Y-102220000D03*
X84582000Y-102220000D03*
X87122000Y-102220000D03*
X89662000Y-102220000D03*
X92202000Y-102220000D03*
X94742000Y-102220000D03*
X97282000Y-102220000D03*
X99822000Y-102220000D03*
X102362000Y-102220000D03*
X104902000Y-102220000D03*
X107442000Y-102220000D03*
X109982000Y-102220000D03*
X112522000Y-102220000D03*
X115062000Y-102220000D03*
%TD*%
D14*
%TO.C,J2*%
X115062000Y-120000000D03*
D15*
X112522000Y-120000000D03*
X109982000Y-120000000D03*
X107442000Y-120000000D03*
X104902000Y-120000000D03*
X102362000Y-120000000D03*
X99822000Y-120000000D03*
X97282000Y-120000000D03*
X94742000Y-120000000D03*
X92202000Y-120000000D03*
X89662000Y-120000000D03*
X87122000Y-120000000D03*
X84582000Y-120000000D03*
X82042000Y-120000000D03*
X79502000Y-120000000D03*
X76962000Y-120000000D03*
X74422000Y-120000000D03*
X71882000Y-120000000D03*
X69342000Y-120000000D03*
X66802000Y-120000000D03*
%TD*%
M02*
