%TF.GenerationSoftware,KiCad,Pcbnew,10.0.3*%
%TF.CreationDate,2026-07-04T09:26:34-05:00*%
%TF.ProjectId,calc-project,63616c63-2d70-4726-9f6a-6563742e6b69,rev?*%
%TF.SameCoordinates,Original*%
%TF.FileFunction,Copper,L2,Bot*%
%TF.FilePolarity,Positive*%
%FSLAX46Y46*%
G04 Gerber Fmt 4.6, Leading zero omitted, Abs format (unit mm)*
G04 Created by KiCad (PCBNEW 10.0.3) date 2026-07-04 09:26:34*
%MOMM*%
%LPD*%
G01*
G04 APERTURE LIST*
%TA.AperFunction,ComponentPad*%
%ADD10C,2.000000*%
%TD*%
%TA.AperFunction,ComponentPad*%
%ADD11R,1.270000X1.270000*%
%TD*%
%TA.AperFunction,ComponentPad*%
%ADD12C,1.270000*%
%TD*%
%TA.AperFunction,ComponentPad*%
%ADD13R,1.700000X1.700000*%
%TD*%
%TA.AperFunction,ComponentPad*%
%ADD14C,1.700000*%
%TD*%
%TA.AperFunction,Conductor*%
%ADD15C,0.200000*%
%TD*%
G04 APERTURE END LIST*
D10*
%TO.P,SW31,1,1_1*%
%TO.N,col 5*%
X46750000Y-177750000D03*
X53250000Y-177750000D03*
%TO.P,SW31,2,2_2*%
%TO.N,row 5*%
X46750000Y-182250000D03*
X53250000Y-182250000D03*
%TD*%
%TO.P,SW14,1,1_1*%
%TO.N,col 4*%
X58750000Y-141750000D03*
X65250000Y-141750000D03*
%TO.P,SW14,2,2_2*%
%TO.N,row 2*%
X58750000Y-146250000D03*
X65250000Y-146250000D03*
%TD*%
%TO.P,SW35,1,1_1*%
%TO.N,col 1*%
X94750000Y-177750000D03*
X101250000Y-177750000D03*
%TO.P,SW35,2,2_2*%
%TO.N,row 5*%
X94750000Y-182250000D03*
X101250000Y-182250000D03*
%TD*%
%TO.P,SW8,1,1_1*%
%TO.N,col 4*%
X58750000Y-129750000D03*
X65250000Y-129750000D03*
%TO.P,SW8,2,2_2*%
%TO.N,row 1*%
X58750000Y-134250000D03*
X65250000Y-134250000D03*
%TD*%
%TO.P,SW29,1,1_1*%
%TO.N,col 1*%
X94750000Y-165750000D03*
X101250000Y-165750000D03*
%TO.P,SW29,2,2_2*%
%TO.N,row 4*%
X94750000Y-170250000D03*
X101250000Y-170250000D03*
%TD*%
%TO.P,SW2,1,1_1*%
%TO.N,col 4*%
X58750000Y-107750000D03*
X65250000Y-107750000D03*
%TO.P,SW2,2,2_2*%
%TO.N,row 0*%
X58750000Y-112250000D03*
X65250000Y-112250000D03*
%TD*%
%TO.P,SW17,1,1_1*%
%TO.N,col 1*%
X94750000Y-141750000D03*
X101250000Y-141750000D03*
%TO.P,SW17,2,2_2*%
%TO.N,row 2*%
X94750000Y-146250000D03*
X101250000Y-146250000D03*
%TD*%
%TO.P,SW22,1,1_1*%
%TO.N,col 2*%
X82750000Y-153750000D03*
X89250000Y-153750000D03*
%TO.P,SW22,2,2_2*%
%TO.N,row 3*%
X82750000Y-158250000D03*
X89250000Y-158250000D03*
%TD*%
%TO.P,SW26,1,1_1*%
%TO.N,col 4*%
X58750000Y-165750000D03*
X65250000Y-165750000D03*
%TO.P,SW26,2,2_2*%
%TO.N,row 4*%
X58750000Y-170250000D03*
X65250000Y-170250000D03*
%TD*%
%TO.P,SW33,1,1_1*%
%TO.N,col 3*%
X70750000Y-177750000D03*
X77250000Y-177750000D03*
%TO.P,SW33,2,2_2*%
%TO.N,row 5*%
X70750000Y-182250000D03*
X77250000Y-182250000D03*
%TD*%
%TO.P,SW7,1,1_1*%
%TO.N,col 5*%
X46750000Y-129750000D03*
X53250000Y-129750000D03*
%TO.P,SW7,2,2_2*%
%TO.N,row 1*%
X46750000Y-134250000D03*
X53250000Y-134250000D03*
%TD*%
%TO.P,SW30,1,1_1*%
%TO.N,col 0*%
X106750000Y-165750000D03*
X113250000Y-165750000D03*
%TO.P,SW30,2,2_2*%
%TO.N,row 4*%
X106750000Y-170250000D03*
X113250000Y-170250000D03*
%TD*%
%TO.P,SW1,1,1_1*%
%TO.N,col 5*%
X46750000Y-107750000D03*
X53250000Y-107750000D03*
%TO.P,SW1,2,2_2*%
%TO.N,row 0*%
X46750000Y-112250000D03*
X53250000Y-112250000D03*
%TD*%
%TO.P,SW3,1,1_1*%
%TO.N,col 3*%
X70750000Y-107750000D03*
X77250000Y-107750000D03*
%TO.P,SW3,2,2_2*%
%TO.N,row 0*%
X70750000Y-112250000D03*
X77250000Y-112250000D03*
%TD*%
%TO.P,SW19,1,1_1*%
%TO.N,col 5*%
X46750000Y-153750000D03*
X53250000Y-153750000D03*
%TO.P,SW19,2,2_2*%
%TO.N,row 3*%
X46750000Y-158250000D03*
X53250000Y-158250000D03*
%TD*%
%TO.P,SW28,1,1_1*%
%TO.N,col 2*%
X82750000Y-165750000D03*
X89250000Y-165750000D03*
%TO.P,SW28,2,2_2*%
%TO.N,row 4*%
X82750000Y-170250000D03*
X89250000Y-170250000D03*
%TD*%
%TO.P,SW16,1,1_1*%
%TO.N,col 2*%
X82750000Y-141750000D03*
X89250000Y-141750000D03*
%TO.P,SW16,2,2_2*%
%TO.N,row 2*%
X82750000Y-146250000D03*
X89250000Y-146250000D03*
%TD*%
%TO.P,SW36,1,1_1*%
%TO.N,col 0*%
X106750000Y-177750000D03*
X113250000Y-177750000D03*
%TO.P,SW36,2,2_2*%
%TO.N,row 5*%
X106750000Y-182250000D03*
X113250000Y-182250000D03*
%TD*%
%TO.P,SW25,1,1_1*%
%TO.N,col 5*%
X46750000Y-165750000D03*
X53250000Y-165750000D03*
%TO.P,SW25,2,2_2*%
%TO.N,row 4*%
X46750000Y-170250000D03*
X53250000Y-170250000D03*
%TD*%
%TO.P,SW34,1,1_1*%
%TO.N,col 2*%
X82750000Y-177750000D03*
X89250000Y-177750000D03*
%TO.P,SW34,2,2_2*%
%TO.N,row 5*%
X82750000Y-182250000D03*
X89250000Y-182250000D03*
%TD*%
%TO.P,SW12,1,1_1*%
%TO.N,col 0*%
X106750000Y-129750000D03*
X113250000Y-129750000D03*
%TO.P,SW12,2,2_2*%
%TO.N,row 1*%
X106750000Y-134250000D03*
X113250000Y-134250000D03*
%TD*%
D11*
%TO.P,J3,1,Pin_1_1*%
%TO.N,+3.3V*%
X61540000Y-96550000D03*
D12*
%TO.P,J3,2,Pin_2_2*%
%TO.N,GND*%
X64080000Y-96550000D03*
%TO.P,J3,3,Pin_3_3*%
%TO.N,CS*%
X66620000Y-96550000D03*
%TO.P,J3,4,Pin_4_4*%
%TO.N,RESET*%
X69160000Y-96550000D03*
%TO.P,J3,5,Pin_5_5*%
%TO.N,DC_SELECT*%
X71700000Y-96550000D03*
%TO.P,J3,6,Pin_6_6*%
%TO.N,SDI(MOSI)*%
X74240000Y-96550000D03*
%TO.P,J3,7,Pin_7_7*%
%TO.N,SCK*%
X76780000Y-96550000D03*
%TO.P,J3,8,Pin_8_8*%
%TO.N,LED_CTRL*%
X79320000Y-96550000D03*
%TO.P,J3,9,Pin_9_9*%
%TO.N,unconnected-(J3-Pin_9-Pad9)*%
X81860000Y-96550000D03*
%TO.P,J3,10,Pin_10_10*%
%TO.N,unconnected-(J3-Pin_10-Pad10)*%
X84400000Y-96550000D03*
%TO.P,J3,11,Pin_11_11*%
%TO.N,unconnected-(J3-Pin_11-Pad11)*%
X86940000Y-96550000D03*
%TO.P,J3,12,Pin_12_12*%
%TO.N,unconnected-(J3-Pin_12-Pad12)*%
X89480000Y-96550000D03*
%TO.P,J3,13,Pin_13_13*%
%TO.N,unconnected-(J3-Pin_13-Pad13)*%
X91977257Y-96550000D03*
%TO.P,J3,14,Pin_14_14*%
%TO.N,unconnected-(J3-Pin_14-Pad14)*%
X94560000Y-96550000D03*
%TD*%
D10*
%TO.P,SW10,1,1_1*%
%TO.N,col 2*%
X82750000Y-129750000D03*
X89250000Y-129750000D03*
%TO.P,SW10,2,2_2*%
%TO.N,row 1*%
X82750000Y-134250000D03*
X89250000Y-134250000D03*
%TD*%
%TO.P,SW4,1,1_1*%
%TO.N,col 2*%
X82750000Y-107750000D03*
X89250000Y-107750000D03*
%TO.P,SW4,2,2_2*%
%TO.N,row 0*%
X82750000Y-112250000D03*
X89250000Y-112250000D03*
%TD*%
%TO.P,SW18,1,1_1*%
%TO.N,col 0*%
X106750000Y-141750000D03*
X113250000Y-141750000D03*
%TO.P,SW18,2,2_2*%
%TO.N,row 2*%
X106750000Y-146250000D03*
X113250000Y-146250000D03*
%TD*%
%TO.P,SW23,1,1_1*%
%TO.N,col 1*%
X94750000Y-153750000D03*
X101250000Y-153750000D03*
%TO.P,SW23,2,2_2*%
%TO.N,row 3*%
X94750000Y-158250000D03*
X101250000Y-158250000D03*
%TD*%
%TO.P,SW11,1,1_1*%
%TO.N,col 1*%
X94750000Y-129750000D03*
X101250000Y-129750000D03*
%TO.P,SW11,2,2_2*%
%TO.N,row 1*%
X94750000Y-134250000D03*
X101250000Y-134250000D03*
%TD*%
%TO.P,SW27,1,1_1*%
%TO.N,col 3*%
X70750000Y-165750000D03*
X77250000Y-165750000D03*
%TO.P,SW27,2,2_2*%
%TO.N,row 4*%
X70750000Y-170250000D03*
X77250000Y-170250000D03*
%TD*%
%TO.P,SW13,1,1_1*%
%TO.N,col 5*%
X46750000Y-141750000D03*
X53250000Y-141750000D03*
%TO.P,SW13,2,2_2*%
%TO.N,row 2*%
X46750000Y-146250000D03*
X53250000Y-146250000D03*
%TD*%
%TO.P,SW5,1,1_1*%
%TO.N,col 1*%
X94750000Y-107750000D03*
X101250000Y-107750000D03*
%TO.P,SW5,2,2_2*%
%TO.N,row 0*%
X94750000Y-112250000D03*
X101250000Y-112250000D03*
%TD*%
%TO.P,SW32,1,1_1*%
%TO.N,col 4*%
X58750000Y-177750000D03*
X65250000Y-177750000D03*
%TO.P,SW32,2,2_2*%
%TO.N,row 5*%
X58750000Y-182250000D03*
X65250000Y-182250000D03*
%TD*%
%TO.P,SW20,1,1_1*%
%TO.N,col 4*%
X58750000Y-153750000D03*
X65250000Y-153750000D03*
%TO.P,SW20,2,2_2*%
%TO.N,row 3*%
X58750000Y-158250000D03*
X65250000Y-158250000D03*
%TD*%
%TO.P,SW24,1,1_1*%
%TO.N,col 0*%
X106750000Y-153750000D03*
X113250000Y-153750000D03*
%TO.P,SW24,2,2_2*%
%TO.N,row 3*%
X106750000Y-158250000D03*
X113250000Y-158250000D03*
%TD*%
%TO.P,SW21,1,1_1*%
%TO.N,col 3*%
X70750000Y-153750000D03*
X77250000Y-153750000D03*
%TO.P,SW21,2,2_2*%
%TO.N,row 3*%
X70750000Y-158250000D03*
X77250000Y-158250000D03*
%TD*%
%TO.P,SW15,1,1_1*%
%TO.N,col 3*%
X70750000Y-141750000D03*
X77250000Y-141750000D03*
%TO.P,SW15,2,2_2*%
%TO.N,row 2*%
X70750000Y-146250000D03*
X77250000Y-146250000D03*
%TD*%
%TO.P,SW6,1,1_1*%
%TO.N,col 0*%
X106750000Y-107750000D03*
X113250000Y-107750000D03*
%TO.P,SW6,2,2_2*%
%TO.N,row 0*%
X106750000Y-112250000D03*
X113250000Y-112250000D03*
%TD*%
%TO.P,SW9,1,1_1*%
%TO.N,col 3*%
X70750000Y-129750000D03*
X77250000Y-129750000D03*
%TO.P,SW9,2,2_2*%
%TO.N,row 1*%
X70750000Y-134250000D03*
X77250000Y-134250000D03*
%TD*%
D13*
%TO.P,J1,1,GP16_1*%
%TO.N,DC_SELECT*%
X66802000Y-102220000D03*
D14*
%TO.P,J1,2,GP17_2*%
%TO.N,CS*%
X69342000Y-102220000D03*
%TO.P,J1,3,GND_3*%
%TO.N,GND*%
X71882000Y-102220000D03*
%TO.P,J1,4,GP18_4*%
%TO.N,SCK*%
X74422000Y-102220000D03*
%TO.P,J1,5,GP19_5*%
%TO.N,SDI(MOSI)*%
X76962000Y-102220000D03*
%TO.P,J1,6,GP20_6*%
%TO.N,RESET*%
X79502000Y-102220000D03*
%TO.P,J1,7,GP21_7*%
%TO.N,unconnected-(J1-GP21-Pad7)*%
X82042000Y-102220000D03*
%TO.P,J1,8,GND_8*%
%TO.N,unconnected-(J1-GND-Pad8)*%
X84582000Y-102220000D03*
%TO.P,J1,9,GP22_9*%
%TO.N,LED_CTRL*%
X87122000Y-102220000D03*
%TO.P,J1,10,RUN_10*%
%TO.N,unconnected-(J1-RUN-Pad10)*%
X89662000Y-102220000D03*
%TO.P,J1,11,GP26_A0_11*%
%TO.N,unconnected-(J1-GP26_A0-Pad11)*%
X92202000Y-102220000D03*
%TO.P,J1,12,GP27_A1_12*%
%TO.N,unconnected-(J1-GP27_A1-Pad12)*%
X94742000Y-102220000D03*
%TO.P,J1,13,ADC_GND_13*%
%TO.N,unconnected-(J1-ADC_GND-Pad13)*%
X97282000Y-102220000D03*
%TO.P,J1,14,GP28_A2_14*%
%TO.N,unconnected-(J1-GP28_A2-Pad14)*%
X99822000Y-102220000D03*
%TO.P,J1,15,ADC_VREF_15*%
%TO.N,unconnected-(J1-ADC_VREF-Pad15)*%
X102362000Y-102220000D03*
%TO.P,J1,16,3V3_OUT_16*%
%TO.N,+3.3V*%
X104902000Y-102220000D03*
%TO.P,J1,17,3V3_EN_17*%
%TO.N,unconnected-(J1-3V3_EN-Pad17)*%
X107442000Y-102220000D03*
%TO.P,J1,18,GND_18*%
%TO.N,unconnected-(J1-GND-Pad18)*%
X109982000Y-102220000D03*
%TO.P,J1,19,VSYS_19*%
%TO.N,unconnected-(J1-VSYS-Pad19)*%
X112522000Y-102220000D03*
%TO.P,J1,20,VBUS_20*%
%TO.N,unconnected-(J1-VBUS-Pad20)*%
X115062000Y-102220000D03*
%TD*%
D13*
%TO.P,J2,1,GP0_1*%
%TO.N,col 0*%
X115062000Y-120000000D03*
D14*
%TO.P,J2,2,GP1_2*%
%TO.N,col 1*%
X112522000Y-120000000D03*
%TO.P,J2,3,GND_3*%
%TO.N,unconnected-(J2-GND-Pad3)*%
X109982000Y-120000000D03*
%TO.P,J2,4,GP2_4*%
%TO.N,col 2*%
X107442000Y-120000000D03*
%TO.P,J2,5,GP3_5*%
%TO.N,col 3*%
X104902000Y-120000000D03*
%TO.P,J2,6,GP4_6*%
%TO.N,col 4*%
X102362000Y-120000000D03*
%TO.P,J2,7,GP5_7*%
%TO.N,col 5*%
X99822000Y-120000000D03*
%TO.P,J2,8,GND_8*%
%TO.N,unconnected-(J2-GND-Pad8)*%
X97282000Y-120000000D03*
%TO.P,J2,9,GP6_9*%
%TO.N,row 0*%
X94742000Y-120000000D03*
%TO.P,J2,10,GP7_10*%
%TO.N,row 1*%
X92202000Y-120000000D03*
%TO.P,J2,11,GP8_11*%
%TO.N,row 2*%
X89662000Y-120000000D03*
%TO.P,J2,12,GP9_12*%
%TO.N,row 3*%
X87122000Y-120000000D03*
%TO.P,J2,13,GND_13*%
%TO.N,unconnected-(J2-GND-Pad13)*%
X84582000Y-120000000D03*
%TO.P,J2,14,GP10_14*%
%TO.N,row 4*%
X82042000Y-120000000D03*
%TO.P,J2,15,GP11_15*%
%TO.N,row 5*%
X79502000Y-120000000D03*
%TO.P,J2,16,GP12_16*%
%TO.N,unconnected-(J2-GP12-Pad16)*%
X76962000Y-120000000D03*
%TO.P,J2,17,GP13_17*%
%TO.N,unconnected-(J2-GP13-Pad17)*%
X74422000Y-120000000D03*
%TO.P,J2,18,GND_18*%
%TO.N,unconnected-(J2-GND-Pad18)*%
X71882000Y-120000000D03*
%TO.P,J2,19,GP14_19*%
%TO.N,unconnected-(J2-GP14-Pad19)*%
X69342000Y-120000000D03*
%TO.P,J2,20,GP15_20*%
%TO.N,unconnected-(J2-GP15-Pad20)*%
X66802000Y-120000000D03*
%TD*%
%TO.N,col 5*%
D15*
X53250000Y-177750000D02*
X46750000Y-177750000D01*
X45450000Y-155050000D02*
X46750000Y-153750000D01*
X45450000Y-176450000D02*
X45450000Y-167050000D01*
X45450000Y-140450000D02*
X45450000Y-131050000D01*
X99822000Y-120000000D02*
X92822000Y-127000000D01*
X56000000Y-127000000D02*
X56000000Y-110500000D01*
X46750000Y-141750000D02*
X53250000Y-141750000D01*
X46750000Y-153750000D02*
X53250000Y-153750000D01*
X45450000Y-152450000D02*
X45450000Y-143050000D01*
X45450000Y-131050000D02*
X46750000Y-129750000D01*
X53250000Y-129750000D02*
X46750000Y-129750000D01*
X46750000Y-165750000D02*
X45450000Y-164450000D01*
X45450000Y-164450000D02*
X45450000Y-155050000D01*
X56000000Y-110500000D02*
X53250000Y-107750000D01*
X46750000Y-177750000D02*
X45450000Y-176450000D01*
X53250000Y-165750000D02*
X46750000Y-165750000D01*
X45450000Y-167050000D02*
X46750000Y-165750000D01*
X92822000Y-127000000D02*
X56000000Y-127000000D01*
X45450000Y-143050000D02*
X46750000Y-141750000D01*
X56000000Y-127000000D02*
X53250000Y-129750000D01*
X46750000Y-141750000D02*
X45450000Y-140450000D01*
X46750000Y-153750000D02*
X45450000Y-152450000D01*
%TO.N,col 4*%
X63960000Y-145701522D02*
X63960000Y-143040000D01*
X63950000Y-146788478D02*
X63950000Y-145711522D01*
X63950000Y-155050000D02*
X65250000Y-153750000D01*
X94962000Y-127400000D02*
X67600000Y-127400000D01*
X65250000Y-132411522D02*
X65250000Y-129750000D01*
X65250000Y-177750000D02*
X63950000Y-176450000D01*
X102362000Y-120000000D02*
X94962000Y-127400000D01*
X63950000Y-176450000D02*
X63950000Y-167050000D01*
X63840000Y-133821522D02*
X65250000Y-132411522D01*
X63950000Y-167050000D02*
X65250000Y-165750000D01*
X65250000Y-153750000D02*
X64711522Y-153211522D01*
X65250000Y-165750000D02*
X58750000Y-165750000D01*
X63950000Y-164450000D02*
X63950000Y-155050000D01*
X67600000Y-127400000D02*
X65250000Y-129750000D01*
X58750000Y-153750000D02*
X65250000Y-153750000D01*
X65250000Y-141750000D02*
X63840000Y-140340000D01*
X65250000Y-141750000D02*
X58750000Y-141750000D01*
X63950000Y-145711522D02*
X63960000Y-145701522D01*
X64711522Y-147550000D02*
X63950000Y-146788478D01*
X65250000Y-165750000D02*
X63950000Y-164450000D01*
X58750000Y-129750000D02*
X65250000Y-129750000D01*
X64711522Y-153211522D02*
X64711522Y-147550000D01*
X63840000Y-140340000D02*
X63840000Y-133821522D01*
X63960000Y-143040000D02*
X65250000Y-141750000D01*
X58750000Y-177750000D02*
X65250000Y-177750000D01*
%TO.N,row 2*%
X77250000Y-146250000D02*
X82750000Y-146250000D01*
X89250000Y-146250000D02*
X94750000Y-146250000D01*
X89250000Y-146250000D02*
X82750000Y-146250000D01*
X53250000Y-146250000D02*
X46750000Y-146250000D01*
X53250000Y-146250000D02*
X58750000Y-146250000D01*
%TO.N,col 1*%
X102550000Y-152450000D02*
X101250000Y-153750000D01*
X101250000Y-153750000D02*
X102550000Y-155050000D01*
X101250000Y-165750000D02*
X102550000Y-167050000D01*
X94750000Y-129750000D02*
X101250000Y-129750000D01*
X102772000Y-129750000D02*
X101250000Y-129750000D01*
X94750000Y-141750000D02*
X101250000Y-141750000D01*
X102550000Y-164450000D02*
X101250000Y-165750000D01*
X102550000Y-155050000D02*
X102550000Y-164450000D01*
X102550000Y-131050000D02*
X102550000Y-140450000D01*
X102550000Y-167050000D02*
X102550000Y-176450000D01*
X101250000Y-141750000D02*
X102550000Y-143050000D01*
X112522000Y-120000000D02*
X102772000Y-129750000D01*
X112522000Y-120000000D02*
X101250000Y-108728000D01*
X102550000Y-143050000D02*
X102550000Y-152450000D01*
X102550000Y-140450000D02*
X101250000Y-141750000D01*
X101250000Y-129750000D02*
X102550000Y-131050000D01*
X101250000Y-108728000D02*
X101250000Y-107750000D01*
X102550000Y-176450000D02*
X101250000Y-177750000D01*
%TO.N,row 1*%
X46750000Y-134250000D02*
X53250000Y-134250000D01*
X89250000Y-134250000D02*
X82750000Y-134250000D01*
X89250000Y-134250000D02*
X94750000Y-134250000D01*
X77250000Y-134250000D02*
X82750000Y-134250000D01*
X53250000Y-134250000D02*
X58750000Y-134250000D01*
%TO.N,row 4*%
X82750000Y-170250000D02*
X77250000Y-170250000D01*
X53250000Y-170250000D02*
X46750000Y-170250000D01*
X58750000Y-170250000D02*
X53250000Y-170250000D01*
X89250000Y-170250000D02*
X82750000Y-170250000D01*
X89250000Y-170250000D02*
X94750000Y-170250000D01*
%TO.N,row 0*%
X94750000Y-112250000D02*
X94750000Y-119992000D01*
X46750000Y-112250000D02*
X53250000Y-112250000D01*
X94750000Y-119992000D02*
X94742000Y-120000000D01*
X77250000Y-112250000D02*
X70750000Y-112250000D01*
X89250000Y-112250000D02*
X82750000Y-112250000D01*
X101250000Y-112250000D02*
X94750000Y-112250000D01*
X113250000Y-112250000D02*
X106750000Y-112250000D01*
X58750000Y-112250000D02*
X65250000Y-112250000D01*
%TO.N,col 2*%
X82750000Y-141750000D02*
X89250000Y-141750000D01*
X90550000Y-128450000D02*
X89250000Y-129750000D01*
X98992000Y-128450000D02*
X90550000Y-128450000D01*
X82750000Y-129750000D02*
X89250000Y-129750000D01*
X90550000Y-109050000D02*
X89250000Y-107750000D01*
X107442000Y-120000000D02*
X107442000Y-116603522D01*
X82750000Y-153750000D02*
X89250000Y-153750000D01*
X107442000Y-116603522D02*
X99888478Y-109050000D01*
X99888478Y-109050000D02*
X90550000Y-109050000D01*
X107442000Y-120000000D02*
X98992000Y-128450000D01*
X82750000Y-165750000D02*
X89250000Y-165750000D01*
X82750000Y-177750000D02*
X89250000Y-177750000D01*
%TO.N,row 3*%
X53250000Y-158250000D02*
X46750000Y-158250000D01*
X82750000Y-158250000D02*
X89250000Y-158250000D01*
X82750000Y-158250000D02*
X77250000Y-158250000D01*
X94750000Y-158250000D02*
X89250000Y-158250000D01*
X53250000Y-158250000D02*
X58750000Y-158250000D01*
%TO.N,col 3*%
X96852000Y-128050000D02*
X78950000Y-128050000D01*
X77250000Y-165750000D02*
X75950000Y-167050000D01*
X75950000Y-167050000D02*
X75950000Y-176450000D01*
X70750000Y-177750000D02*
X77250000Y-177750000D01*
X70750000Y-165750000D02*
X77250000Y-165750000D01*
X75950000Y-176450000D02*
X77250000Y-177750000D01*
X78950000Y-128050000D02*
X77250000Y-129750000D01*
X104902000Y-120000000D02*
X96852000Y-128050000D01*
%TO.N,col 0*%
X113250000Y-129750000D02*
X114550000Y-131050000D01*
X114550000Y-164450000D02*
X113250000Y-165750000D01*
X113250000Y-153750000D02*
X106750000Y-153750000D01*
X114550000Y-131050000D02*
X114550000Y-140450000D01*
X106750000Y-141750000D02*
X113250000Y-141750000D01*
X113250000Y-177750000D02*
X106750000Y-177750000D01*
X113250000Y-129750000D02*
X106750000Y-129750000D01*
X114550000Y-152450000D02*
X113250000Y-153750000D01*
X113250000Y-153750000D02*
X114550000Y-155050000D01*
X114550000Y-176450000D02*
X114550000Y-167050000D01*
X113250000Y-129750000D02*
X115062000Y-127938000D01*
X114550000Y-167050000D02*
X113250000Y-165750000D01*
X115062000Y-120000000D02*
X115062000Y-109562000D01*
X106750000Y-165750000D02*
X113250000Y-165750000D01*
X114550000Y-155050000D02*
X114550000Y-164450000D01*
X113250000Y-177750000D02*
X114550000Y-176450000D01*
X115062000Y-109562000D02*
X113250000Y-107750000D01*
X114550000Y-143050000D02*
X114550000Y-152450000D01*
X113250000Y-141750000D02*
X114550000Y-143050000D01*
X114550000Y-140450000D02*
X113250000Y-141750000D01*
X115062000Y-127938000D02*
X115062000Y-120000000D01*
%TO.N,+3.3V*%
X62875000Y-95215000D02*
X97897000Y-95215000D01*
X61540000Y-96550000D02*
X62875000Y-95215000D01*
X97897000Y-95215000D02*
X104902000Y-102220000D01*
%TO.N,GND*%
X67555000Y-96162710D02*
X67007290Y-95615000D01*
X67007290Y-95615000D02*
X65015000Y-95615000D01*
X65015000Y-95615000D02*
X64080000Y-96550000D01*
X71882000Y-102220000D02*
X67555000Y-97893000D01*
X67555000Y-97893000D02*
X67555000Y-96162710D01*
%TO.N,CS*%
X69342000Y-102220000D02*
X66620000Y-99498000D01*
X66620000Y-99498000D02*
X66620000Y-96550000D01*
%TO.N,RESET*%
X69160000Y-96550000D02*
X70095000Y-97485000D01*
X78352000Y-103370000D02*
X73945654Y-103370000D01*
X73032000Y-102456346D02*
X73032000Y-100422000D01*
X73032000Y-100422000D02*
X70095000Y-97485000D01*
X73945654Y-103370000D02*
X73032000Y-102456346D01*
X79502000Y-102220000D02*
X78352000Y-103370000D01*
%TO.N,SCK*%
X74422000Y-98908000D02*
X74422000Y-102220000D01*
X76780000Y-96550000D02*
X74422000Y-98908000D01*
%TD*%
M02*
