%TF.GenerationSoftware,KiCad,Pcbnew,10.0.3*%
%TF.CreationDate,2026-07-04T09:26:34-05:00*%
%TF.ProjectId,calc-project,63616c63-2d70-4726-9f6a-6563742e6b69,rev?*%
%TF.SameCoordinates,Original*%
%TF.FileFunction,Legend,Bot*%
%TF.FilePolarity,Positive*%
%FSLAX46Y46*%
G04 Gerber Fmt 4.6, Leading zero omitted, Abs format (unit mm)*
G04 Created by KiCad (PCBNEW 10.0.3) date 2026-07-04 09:26:34*
%MOMM*%
%LPD*%
G01*
G04 APERTURE LIST*
%ADD10C,0.150000*%
%ADD11C,0.120000*%
%ADD12C,0.100000*%
%ADD13C,0.000000*%
%ADD14C,2.000000*%
%ADD15C,2.100000*%
%ADD16R,1.270000X1.270000*%
%ADD17C,1.270000*%
%ADD18R,1.700000X1.700000*%
%ADD19C,1.700000*%
G04 APERTURE END LIST*
D10*
X63486819Y-101886666D02*
X64201104Y-101886666D01*
X64201104Y-101886666D02*
X64343961Y-101839047D01*
X64343961Y-101839047D02*
X64439200Y-101743809D01*
X64439200Y-101743809D02*
X64486819Y-101600952D01*
X64486819Y-101600952D02*
X64486819Y-101505714D01*
X64486819Y-102886666D02*
X64486819Y-102315238D01*
X64486819Y-102600952D02*
X63486819Y-102600952D01*
X63486819Y-102600952D02*
X63629676Y-102505714D01*
X63629676Y-102505714D02*
X63724914Y-102410476D01*
X63724914Y-102410476D02*
X63772533Y-102315238D01*
%TO.C,J1*%
D11*
X65472000Y-102220000D02*
X65472000Y-103550000D01*
X65472000Y-103550000D02*
X66802000Y-103550000D01*
X68072000Y-100890000D02*
X68072000Y-103550000D01*
X68072000Y-100890000D02*
X116392000Y-100890000D01*
X68072000Y-103550000D02*
X116392000Y-103550000D01*
X116392000Y-100890000D02*
X116392000Y-103550000D01*
%TO.C,J2*%
X65472000Y-121330000D02*
X65472000Y-118670000D01*
X113792000Y-118670000D02*
X65472000Y-118670000D01*
X113792000Y-121330000D02*
X65472000Y-121330000D01*
X113792000Y-121330000D02*
X113792000Y-118670000D01*
X116392000Y-118670000D02*
X115062000Y-118670000D01*
X116392000Y-120000000D02*
X116392000Y-118670000D01*
%TO.C,G\u002A\u002A\u002A*%
D12*
X113329561Y-97528375D02*
X114946439Y-99861626D01*
X114674681Y-96786689D02*
X113326018Y-97531907D01*
X114674681Y-96786689D02*
X116318000Y-99155000D01*
X116318000Y-99155000D02*
X114946439Y-99861626D01*
D13*
G36*
X115216211Y-98682075D02*
G01*
X115225983Y-98698132D01*
X115231164Y-98708246D01*
X115231862Y-98712586D01*
X115231647Y-98712770D01*
X115226129Y-98716225D01*
X115214420Y-98722936D01*
X115197492Y-98732367D01*
X115176316Y-98743980D01*
X115151865Y-98757237D01*
X115125110Y-98771603D01*
X115120914Y-98773843D01*
X115094594Y-98787816D01*
X115070791Y-98800318D01*
X115050455Y-98810860D01*
X115034535Y-98818954D01*
X115023980Y-98824110D01*
X115019742Y-98825839D01*
X115019351Y-98825631D01*
X115017106Y-98823290D01*
X115012897Y-98817983D01*
X115006381Y-98809233D01*
X114997217Y-98796561D01*
X114985066Y-98779490D01*
X114969585Y-98757542D01*
X114950434Y-98730238D01*
X114927272Y-98697101D01*
X114906581Y-98667436D01*
X114972754Y-98667436D01*
X114974973Y-98676640D01*
X114984890Y-98697253D01*
X114999899Y-98715325D01*
X115017906Y-98728044D01*
X115039721Y-98736083D01*
X115064523Y-98739211D01*
X115087284Y-98735941D01*
X115106943Y-98726797D01*
X115122444Y-98712301D01*
X115132726Y-98692977D01*
X115136732Y-98669348D01*
X115136744Y-98667453D01*
X115132867Y-98645457D01*
X115122476Y-98626301D01*
X115106912Y-98610603D01*
X115087514Y-98598980D01*
X115065622Y-98592050D01*
X115042575Y-98590430D01*
X115019715Y-98594737D01*
X114998379Y-98605590D01*
X114990502Y-98612774D01*
X114979703Y-98629385D01*
X114973333Y-98648703D01*
X114972754Y-98667436D01*
X114906581Y-98667436D01*
X114899758Y-98657653D01*
X114872081Y-98617942D01*
X114982122Y-98559696D01*
X114992848Y-98554025D01*
X115019526Y-98539976D01*
X115043391Y-98527491D01*
X115063548Y-98517030D01*
X115079103Y-98509058D01*
X115089161Y-98504036D01*
X115092828Y-98502428D01*
X115093235Y-98503016D01*
X115097322Y-98508896D01*
X115105320Y-98520395D01*
X115116647Y-98536677D01*
X115130722Y-98556909D01*
X115146964Y-98580255D01*
X115164794Y-98605880D01*
X115182473Y-98631457D01*
X115201743Y-98659906D01*
X115206668Y-98667453D01*
X115216211Y-98682075D01*
G37*
G36*
X114838908Y-98853540D02*
G01*
X114851147Y-98871799D01*
X114860790Y-98886399D01*
X114867127Y-98896303D01*
X114869448Y-98900477D01*
X114866950Y-98903275D01*
X114857772Y-98909689D01*
X114842488Y-98919110D01*
X114821772Y-98931139D01*
X114796296Y-98945377D01*
X114766733Y-98961423D01*
X114762330Y-98963779D01*
X114735752Y-98977848D01*
X114711525Y-98990417D01*
X114690629Y-99000999D01*
X114674043Y-99009102D01*
X114662747Y-99014238D01*
X114657720Y-99015917D01*
X114656890Y-99015419D01*
X114651631Y-99009733D01*
X114642555Y-98998384D01*
X114630290Y-98982211D01*
X114615468Y-98962055D01*
X114598719Y-98938756D01*
X114580673Y-98913156D01*
X114534797Y-98847461D01*
X114607877Y-98847461D01*
X114607906Y-98848979D01*
X114612142Y-98869517D01*
X114622452Y-98890057D01*
X114637236Y-98908091D01*
X114654893Y-98921114D01*
X114664102Y-98925317D01*
X114687888Y-98931238D01*
X114711216Y-98930800D01*
X114732703Y-98924534D01*
X114750964Y-98912971D01*
X114764618Y-98896641D01*
X114772279Y-98876075D01*
X114772688Y-98873712D01*
X114772760Y-98849415D01*
X114765099Y-98827583D01*
X114749973Y-98808715D01*
X114727653Y-98793309D01*
X114723637Y-98791321D01*
X114698468Y-98783519D01*
X114673352Y-98783108D01*
X114649773Y-98789929D01*
X114629216Y-98803823D01*
X114625487Y-98807832D01*
X114616894Y-98820755D01*
X114610418Y-98835205D01*
X114607877Y-98847461D01*
X114534797Y-98847461D01*
X114509469Y-98811191D01*
X114534933Y-98797168D01*
X114538279Y-98795328D01*
X114559989Y-98783508D01*
X114583938Y-98770636D01*
X114609070Y-98757263D01*
X114634327Y-98743938D01*
X114658653Y-98731213D01*
X114680991Y-98719639D01*
X114700285Y-98709766D01*
X114715477Y-98702144D01*
X114725511Y-98697326D01*
X114729330Y-98695860D01*
X114732657Y-98700067D01*
X114740127Y-98710301D01*
X114750676Y-98725164D01*
X114763596Y-98743621D01*
X114778176Y-98764634D01*
X114793706Y-98787169D01*
X114809478Y-98810189D01*
X114824782Y-98832658D01*
X114836118Y-98849415D01*
X114838908Y-98853540D01*
G37*
G36*
X115070935Y-99187001D02*
G01*
X115080289Y-99202018D01*
X115085949Y-99212000D01*
X115087370Y-99216103D01*
X115087027Y-99216372D01*
X115081233Y-99219849D01*
X115069284Y-99226545D01*
X115052132Y-99235941D01*
X115030729Y-99247517D01*
X115006028Y-99260756D01*
X114978981Y-99275139D01*
X114972661Y-99278486D01*
X114946282Y-99292441D01*
X114922597Y-99304945D01*
X114902526Y-99315514D01*
X114886987Y-99323665D01*
X114876900Y-99328914D01*
X114873184Y-99330777D01*
X114873056Y-99330652D01*
X114869784Y-99326232D01*
X114862653Y-99316230D01*
X114852363Y-99301655D01*
X114839618Y-99283512D01*
X114825119Y-99262809D01*
X114809569Y-99240553D01*
X114793670Y-99217751D01*
X114778125Y-99195410D01*
X114763636Y-99174538D01*
X114755319Y-99162519D01*
X114826661Y-99162519D01*
X114828297Y-99175953D01*
X114836691Y-99196938D01*
X114850894Y-99215741D01*
X114869424Y-99230578D01*
X114890797Y-99239663D01*
X114904467Y-99242486D01*
X114925348Y-99243293D01*
X114944330Y-99238682D01*
X114945589Y-99238185D01*
X114966321Y-99226239D01*
X114980722Y-99210520D01*
X114988990Y-99192232D01*
X114991322Y-99172576D01*
X114987916Y-99152754D01*
X114978969Y-99133968D01*
X114964678Y-99117419D01*
X114945242Y-99104310D01*
X114920858Y-99095843D01*
X114899241Y-99093899D01*
X114876325Y-99097894D01*
X114856359Y-99107639D01*
X114840592Y-99122248D01*
X114830276Y-99140837D01*
X114826661Y-99162519D01*
X114755319Y-99162519D01*
X114750906Y-99156141D01*
X114740636Y-99141227D01*
X114733529Y-99130803D01*
X114730287Y-99125875D01*
X114730243Y-99125370D01*
X114734602Y-99121040D01*
X114746251Y-99113314D01*
X114765042Y-99102278D01*
X114790827Y-99088021D01*
X114823457Y-99070630D01*
X114846386Y-99058550D01*
X114871404Y-99045307D01*
X114893653Y-99033464D01*
X114911997Y-99023628D01*
X114925301Y-99016406D01*
X114932429Y-99012406D01*
X114945436Y-99004632D01*
X115018121Y-99108649D01*
X115026156Y-99120199D01*
X115043324Y-99145246D01*
X115058432Y-99167795D01*
X115061544Y-99172576D01*
X115070935Y-99187001D01*
G37*
G36*
X115637133Y-99282770D02*
G01*
X115650302Y-99302014D01*
X115660501Y-99317092D01*
X115667141Y-99327140D01*
X115669634Y-99331294D01*
X115669371Y-99331747D01*
X115664057Y-99335566D01*
X115652599Y-99342559D01*
X115635891Y-99352217D01*
X115614825Y-99364030D01*
X115590294Y-99377487D01*
X115563191Y-99392079D01*
X115546121Y-99401156D01*
X115516195Y-99416846D01*
X115492630Y-99428827D01*
X115474884Y-99437352D01*
X115462414Y-99442679D01*
X115454679Y-99445061D01*
X115451134Y-99444753D01*
X115450699Y-99444271D01*
X115446154Y-99438332D01*
X115437685Y-99426726D01*
X115425931Y-99410345D01*
X115411528Y-99390082D01*
X115395116Y-99366830D01*
X115377332Y-99341481D01*
X115361735Y-99319154D01*
X115345207Y-99295323D01*
X115332660Y-99276889D01*
X115331731Y-99275466D01*
X115408344Y-99275466D01*
X115410185Y-99296590D01*
X115418306Y-99317035D01*
X115432395Y-99335348D01*
X115452139Y-99350075D01*
X115454892Y-99351501D01*
X115470820Y-99357606D01*
X115486847Y-99361207D01*
X115494396Y-99361812D01*
X115518497Y-99359497D01*
X115538659Y-99351214D01*
X115554457Y-99338172D01*
X115565465Y-99321581D01*
X115571259Y-99302651D01*
X115571412Y-99282591D01*
X115565500Y-99262612D01*
X115553097Y-99243923D01*
X115533777Y-99227735D01*
X115520399Y-99220533D01*
X115495411Y-99213173D01*
X115470649Y-99213081D01*
X115447489Y-99220173D01*
X115427306Y-99234363D01*
X115424746Y-99236992D01*
X115413093Y-99255116D01*
X115408344Y-99275466D01*
X115331731Y-99275466D01*
X115323649Y-99263093D01*
X115317728Y-99253177D01*
X115314452Y-99246381D01*
X115313375Y-99241947D01*
X115314050Y-99239116D01*
X115316033Y-99237129D01*
X115319109Y-99235251D01*
X115328863Y-99229770D01*
X115343913Y-99221526D01*
X115363088Y-99211148D01*
X115385212Y-99199259D01*
X115409115Y-99186488D01*
X115433622Y-99173459D01*
X115457561Y-99160800D01*
X115479759Y-99149137D01*
X115499043Y-99139095D01*
X115514240Y-99131301D01*
X115527190Y-99124745D01*
X115597985Y-99226254D01*
X115604247Y-99235242D01*
X115621586Y-99260225D01*
X115637010Y-99282591D01*
X115637133Y-99282770D01*
G37*
G36*
X116013800Y-99110392D02*
G01*
X116023815Y-99125442D01*
X116030230Y-99135458D01*
X116032468Y-99139584D01*
X116032184Y-99139977D01*
X116026788Y-99143682D01*
X116015239Y-99150569D01*
X115998446Y-99160125D01*
X115977315Y-99171840D01*
X115952756Y-99185203D01*
X115925675Y-99199703D01*
X115918040Y-99203756D01*
X115891465Y-99217820D01*
X115867550Y-99230405D01*
X115847221Y-99241030D01*
X115831401Y-99249213D01*
X115821014Y-99254473D01*
X115816985Y-99256328D01*
X115816389Y-99255767D01*
X115811946Y-99250029D01*
X115803828Y-99238901D01*
X115792735Y-99223390D01*
X115779369Y-99204504D01*
X115764433Y-99183251D01*
X115748626Y-99160638D01*
X115732651Y-99137672D01*
X115717210Y-99115361D01*
X115703003Y-99094713D01*
X115694559Y-99082341D01*
X115772453Y-99082341D01*
X115773243Y-99102116D01*
X115780947Y-99125184D01*
X115795904Y-99144656D01*
X115817786Y-99159971D01*
X115823717Y-99162403D01*
X115838108Y-99166178D01*
X115853763Y-99168432D01*
X115861853Y-99168691D01*
X115885556Y-99165021D01*
X115906098Y-99155349D01*
X115922270Y-99140667D01*
X115932861Y-99121973D01*
X115936660Y-99100261D01*
X115935807Y-99094141D01*
X115931917Y-99081372D01*
X115925944Y-99067456D01*
X115916602Y-99052858D01*
X115898946Y-99036439D01*
X115877705Y-99025575D01*
X115854479Y-99020549D01*
X115830873Y-99021643D01*
X115808487Y-99029139D01*
X115788924Y-99043319D01*
X115784494Y-99047919D01*
X115777695Y-99057079D01*
X115774182Y-99067366D01*
X115772453Y-99082341D01*
X115694559Y-99082341D01*
X115690732Y-99076734D01*
X115681098Y-99062432D01*
X115674804Y-99052815D01*
X115672550Y-99048890D01*
X115673645Y-99047964D01*
X115680745Y-99043631D01*
X115693566Y-99036355D01*
X115711084Y-99026704D01*
X115732275Y-99015246D01*
X115756116Y-99002548D01*
X115765715Y-98997467D01*
X115791263Y-98983911D01*
X115815376Y-98971069D01*
X115836588Y-98959725D01*
X115853433Y-98950663D01*
X115864442Y-98944666D01*
X115889203Y-98930980D01*
X115960919Y-99033549D01*
X115967936Y-99043603D01*
X115985283Y-99068616D01*
X116000763Y-99091165D01*
X116006931Y-99100261D01*
X116013800Y-99110392D01*
G37*
G36*
X115278878Y-99483507D02*
G01*
X115290626Y-99501213D01*
X115299645Y-99515176D01*
X115305251Y-99524400D01*
X115306758Y-99527892D01*
X115306499Y-99528007D01*
X115300955Y-99530843D01*
X115289257Y-99536997D01*
X115272361Y-99545959D01*
X115251222Y-99557222D01*
X115226797Y-99570278D01*
X115200040Y-99584618D01*
X115195485Y-99587059D01*
X115168980Y-99601124D01*
X115144879Y-99613685D01*
X115124153Y-99624254D01*
X115107768Y-99632341D01*
X115096695Y-99637460D01*
X115091902Y-99639120D01*
X115089008Y-99636146D01*
X115082042Y-99627333D01*
X115071788Y-99613698D01*
X115058972Y-99596261D01*
X115044320Y-99576044D01*
X115028556Y-99554066D01*
X115012405Y-99531348D01*
X114996594Y-99508910D01*
X114981847Y-99487774D01*
X114970914Y-99471899D01*
X115045287Y-99471899D01*
X115048042Y-99493567D01*
X115058077Y-99515911D01*
X115075019Y-99534223D01*
X115098407Y-99547844D01*
X115100091Y-99548524D01*
X115123289Y-99553879D01*
X115146833Y-99552804D01*
X115168855Y-99545867D01*
X115187485Y-99533637D01*
X115200854Y-99516683D01*
X115208577Y-99496706D01*
X115209210Y-99477365D01*
X115202599Y-99456510D01*
X115194377Y-99442314D01*
X115176986Y-99424363D01*
X115155461Y-99412026D01*
X115131423Y-99405871D01*
X115106497Y-99406467D01*
X115082304Y-99414382D01*
X115077927Y-99416737D01*
X115059796Y-99431184D01*
X115048915Y-99449573D01*
X115045287Y-99471899D01*
X114970914Y-99471899D01*
X114968889Y-99468959D01*
X114958447Y-99453486D01*
X114951244Y-99442376D01*
X114948007Y-99436649D01*
X114948012Y-99436538D01*
X114951839Y-99433465D01*
X114961761Y-99427191D01*
X114976689Y-99418315D01*
X114995537Y-99407437D01*
X115017219Y-99395157D01*
X115040645Y-99382075D01*
X115064731Y-99368790D01*
X115088389Y-99355904D01*
X115110531Y-99344015D01*
X115130070Y-99333724D01*
X115145921Y-99325630D01*
X115156995Y-99320334D01*
X115162205Y-99318435D01*
X115163519Y-99319551D01*
X115168966Y-99326256D01*
X115177855Y-99338156D01*
X115189501Y-99354260D01*
X115203218Y-99373572D01*
X115218321Y-99395101D01*
X115234124Y-99417852D01*
X115249942Y-99440832D01*
X115265089Y-99463048D01*
X115274738Y-99477365D01*
X115278878Y-99483507D01*
G37*
G36*
X115579825Y-98488611D02*
G01*
X115589592Y-98503115D01*
X115595980Y-98512966D01*
X115598269Y-98517143D01*
X115598011Y-98517485D01*
X115592714Y-98521036D01*
X115581259Y-98527786D01*
X115564554Y-98537225D01*
X115543506Y-98548847D01*
X115519021Y-98562145D01*
X115492005Y-98576610D01*
X115484762Y-98580460D01*
X115458158Y-98594544D01*
X115434168Y-98607161D01*
X115413725Y-98617827D01*
X115397762Y-98626056D01*
X115387212Y-98631363D01*
X115383008Y-98633263D01*
X115382271Y-98632651D01*
X115377475Y-98626738D01*
X115368838Y-98615209D01*
X115356956Y-98598883D01*
X115342420Y-98578581D01*
X115325824Y-98555122D01*
X115307762Y-98529326D01*
X115292083Y-98506693D01*
X115271911Y-98477030D01*
X115265704Y-98467576D01*
X115335659Y-98467576D01*
X115339367Y-98487968D01*
X115349031Y-98507387D01*
X115364530Y-98524519D01*
X115385746Y-98538052D01*
X115407432Y-98544871D01*
X115431491Y-98545887D01*
X115454524Y-98540813D01*
X115474630Y-98530088D01*
X115489909Y-98514145D01*
X115495004Y-98504150D01*
X115499212Y-98483781D01*
X115497490Y-98462034D01*
X115489839Y-98441678D01*
X115485801Y-98435289D01*
X115468624Y-98417352D01*
X115447054Y-98404939D01*
X115422865Y-98398591D01*
X115397830Y-98398849D01*
X115373723Y-98406254D01*
X115361464Y-98413674D01*
X115346588Y-98429117D01*
X115338026Y-98447521D01*
X115335659Y-98467576D01*
X115265704Y-98467576D01*
X115256685Y-98453840D01*
X115246371Y-98437070D01*
X115240935Y-98426665D01*
X115240342Y-98422571D01*
X115240582Y-98422444D01*
X115246312Y-98419413D01*
X115258226Y-98413107D01*
X115275342Y-98404045D01*
X115296676Y-98392747D01*
X115321248Y-98379735D01*
X115348076Y-98365527D01*
X115352171Y-98363360D01*
X115378575Y-98349510D01*
X115402499Y-98337161D01*
X115422984Y-98326793D01*
X115439072Y-98318884D01*
X115449804Y-98313917D01*
X115454221Y-98312371D01*
X115454504Y-98312574D01*
X115458512Y-98317379D01*
X115466331Y-98327754D01*
X115477243Y-98342678D01*
X115490530Y-98361126D01*
X115505471Y-98382079D01*
X115521347Y-98404512D01*
X115537440Y-98427404D01*
X115553030Y-98449733D01*
X115567398Y-98470476D01*
X115576515Y-98483781D01*
X115579825Y-98488611D01*
G37*
G36*
X115798480Y-98803188D02*
G01*
X115807684Y-98817313D01*
X115813528Y-98826723D01*
X115815313Y-98830402D01*
X115814911Y-98830691D01*
X115809065Y-98834077D01*
X115797100Y-98840696D01*
X115779947Y-98850042D01*
X115758536Y-98861610D01*
X115733797Y-98874896D01*
X115706660Y-98889395D01*
X115699120Y-98893403D01*
X115672569Y-98907350D01*
X115648635Y-98919669D01*
X115628247Y-98929898D01*
X115612331Y-98937579D01*
X115601818Y-98942249D01*
X115597633Y-98943451D01*
X115597490Y-98943309D01*
X115592715Y-98937448D01*
X115584419Y-98926183D01*
X115573287Y-98910529D01*
X115560006Y-98891499D01*
X115545263Y-98870110D01*
X115529745Y-98847375D01*
X115514139Y-98824309D01*
X115499130Y-98801928D01*
X115486189Y-98782422D01*
X115553851Y-98782422D01*
X115554824Y-98789249D01*
X115563128Y-98812384D01*
X115578029Y-98832015D01*
X115598306Y-98846384D01*
X115619170Y-98854447D01*
X115645283Y-98857891D01*
X115669848Y-98853452D01*
X115692324Y-98841160D01*
X115704754Y-98828797D01*
X115714557Y-98810030D01*
X115717602Y-98789263D01*
X115713958Y-98767930D01*
X115703694Y-98747463D01*
X115686881Y-98729296D01*
X115680032Y-98724144D01*
X115658514Y-98713234D01*
X115636181Y-98708503D01*
X115614261Y-98709462D01*
X115593983Y-98715619D01*
X115576574Y-98726484D01*
X115563264Y-98741567D01*
X115555280Y-98760376D01*
X115553851Y-98782422D01*
X115486189Y-98782422D01*
X115485407Y-98781244D01*
X115473655Y-98763274D01*
X115464561Y-98749032D01*
X115458811Y-98739532D01*
X115457094Y-98735790D01*
X115457437Y-98735529D01*
X115463176Y-98732140D01*
X115475065Y-98725526D01*
X115492159Y-98716198D01*
X115513513Y-98704669D01*
X115538184Y-98691454D01*
X115565227Y-98677063D01*
X115595067Y-98661331D01*
X115620994Y-98647926D01*
X115641004Y-98637959D01*
X115655764Y-98631120D01*
X115665941Y-98627102D01*
X115672205Y-98625597D01*
X115675222Y-98626297D01*
X115679419Y-98631439D01*
X115687503Y-98642302D01*
X115698500Y-98657590D01*
X115711713Y-98676287D01*
X115726444Y-98697377D01*
X115741996Y-98719846D01*
X115757673Y-98742676D01*
X115772777Y-98764854D01*
X115786612Y-98785363D01*
X115789209Y-98789263D01*
X115798480Y-98803188D01*
G37*
G36*
X115436337Y-98995995D02*
G01*
X115445632Y-99010068D01*
X115451515Y-99019431D01*
X115453287Y-99023083D01*
X115452996Y-99023272D01*
X115447536Y-99026320D01*
X115435929Y-99032625D01*
X115419100Y-99041692D01*
X115397975Y-99053021D01*
X115373479Y-99066115D01*
X115346538Y-99080477D01*
X115340245Y-99083822D01*
X115313627Y-99097833D01*
X115289517Y-99110310D01*
X115268867Y-99120778D01*
X115252626Y-99128757D01*
X115241747Y-99133772D01*
X115237180Y-99135345D01*
X115236273Y-99134562D01*
X115231226Y-99128414D01*
X115222583Y-99117001D01*
X115211047Y-99101321D01*
X115197321Y-99082367D01*
X115182109Y-99061136D01*
X115166114Y-99038624D01*
X115150038Y-99015826D01*
X115134586Y-98993737D01*
X115122530Y-98976340D01*
X115190107Y-98976340D01*
X115195928Y-98996703D01*
X115209155Y-99017073D01*
X115215191Y-99023435D01*
X115228487Y-99034660D01*
X115241076Y-99042415D01*
X115260668Y-99048445D01*
X115284536Y-99049590D01*
X115307674Y-99044898D01*
X115328014Y-99034825D01*
X115343483Y-99019828D01*
X115348484Y-99011193D01*
X115351799Y-98998929D01*
X115352728Y-98981806D01*
X115351465Y-98965357D01*
X115344260Y-98943807D01*
X115330229Y-98926442D01*
X115308865Y-98912460D01*
X115289179Y-98904905D01*
X115265677Y-98901584D01*
X115243950Y-98904179D01*
X115224803Y-98911844D01*
X115209041Y-98923737D01*
X115197468Y-98939014D01*
X115190889Y-98956829D01*
X115190107Y-98976340D01*
X115122530Y-98976340D01*
X115120461Y-98973354D01*
X115108365Y-98955671D01*
X115099002Y-98941685D01*
X115093075Y-98932392D01*
X115091287Y-98928786D01*
X115091330Y-98928752D01*
X115096118Y-98925917D01*
X115106965Y-98919959D01*
X115122757Y-98911461D01*
X115142385Y-98901005D01*
X115164734Y-98889176D01*
X115188693Y-98876556D01*
X115213151Y-98863729D01*
X115236994Y-98851278D01*
X115259111Y-98839787D01*
X115278390Y-98829838D01*
X115293718Y-98822015D01*
X115303983Y-98816902D01*
X115308074Y-98815081D01*
X115309058Y-98815913D01*
X115314134Y-98822158D01*
X115322770Y-98833681D01*
X115334269Y-98849483D01*
X115347933Y-98868564D01*
X115363065Y-98889927D01*
X115378967Y-98912571D01*
X115394943Y-98935499D01*
X115410294Y-98957712D01*
X115424325Y-98978210D01*
X115426754Y-98981806D01*
X115436337Y-98995995D01*
G37*
G36*
X114790832Y-97450758D02*
G01*
X114826893Y-97502359D01*
X114852844Y-97539515D01*
X114863638Y-97554969D01*
X114895880Y-97601159D01*
X114900765Y-97608158D01*
X114937974Y-97661494D01*
X114953484Y-97683739D01*
X114974963Y-97714545D01*
X114988718Y-97734284D01*
X115011432Y-97766880D01*
X115047079Y-97818067D01*
X115081603Y-97867674D01*
X115114703Y-97915269D01*
X115146077Y-97960422D01*
X115175426Y-98002700D01*
X115202446Y-98041672D01*
X115226839Y-98076906D01*
X115248301Y-98107971D01*
X115264089Y-98130888D01*
X115266533Y-98134435D01*
X115281232Y-98155867D01*
X115292099Y-98171834D01*
X115298831Y-98181905D01*
X115301128Y-98185649D01*
X115300239Y-98186380D01*
X115293211Y-98190622D01*
X115279565Y-98198352D01*
X115259755Y-98209326D01*
X115234235Y-98223299D01*
X115203460Y-98240025D01*
X115167884Y-98259258D01*
X115127963Y-98280753D01*
X115084150Y-98304264D01*
X115036901Y-98329547D01*
X114986669Y-98356355D01*
X114933910Y-98384442D01*
X114879078Y-98413565D01*
X114851854Y-98428001D01*
X114797936Y-98456562D01*
X114746270Y-98483887D01*
X114697314Y-98509738D01*
X114651526Y-98533873D01*
X114609362Y-98556054D01*
X114571282Y-98576039D01*
X114537742Y-98593589D01*
X114509200Y-98608463D01*
X114486115Y-98620423D01*
X114468943Y-98629226D01*
X114458143Y-98634635D01*
X114454172Y-98636408D01*
X114453628Y-98635793D01*
X114449107Y-98629704D01*
X114440294Y-98617450D01*
X114427491Y-98599461D01*
X114410999Y-98576168D01*
X114391119Y-98548002D01*
X114368151Y-98515392D01*
X114342398Y-98478771D01*
X114314159Y-98438569D01*
X114283736Y-98395216D01*
X114251430Y-98349142D01*
X114217543Y-98300780D01*
X114182374Y-98250559D01*
X114146224Y-98198910D01*
X114109396Y-98146263D01*
X114072190Y-98093050D01*
X114034907Y-98039701D01*
X114025642Y-98026437D01*
X114177260Y-98026437D01*
X114180898Y-98035313D01*
X114187612Y-98046852D01*
X114194287Y-98056374D01*
X114201223Y-98064705D01*
X114205498Y-98067925D01*
X114206831Y-98067387D01*
X114214574Y-98063582D01*
X114228610Y-98056417D01*
X114236757Y-98052203D01*
X114453133Y-98052203D01*
X114453594Y-98058549D01*
X114458425Y-98066779D01*
X114465767Y-98074352D01*
X114473764Y-98078730D01*
X114475257Y-98078995D01*
X114486284Y-98077759D01*
X114499613Y-98072647D01*
X114516129Y-98064221D01*
X114580911Y-98156917D01*
X114582332Y-98158950D01*
X114599200Y-98183038D01*
X114614405Y-98204674D01*
X114627336Y-98222994D01*
X114637383Y-98237135D01*
X114643933Y-98246232D01*
X114646376Y-98249421D01*
X114648407Y-98248498D01*
X114655887Y-98244724D01*
X114666349Y-98239298D01*
X114677213Y-98233574D01*
X114685894Y-98228905D01*
X114689813Y-98226645D01*
X114688501Y-98224186D01*
X114683209Y-98215889D01*
X114674551Y-98202772D01*
X114663258Y-98185908D01*
X114650059Y-98166367D01*
X114635687Y-98145221D01*
X114620872Y-98123542D01*
X114606343Y-98102401D01*
X114592832Y-98082870D01*
X114581069Y-98066019D01*
X114571786Y-98052921D01*
X114565711Y-98044647D01*
X114565294Y-98043310D01*
X114568715Y-98038453D01*
X114578896Y-98031186D01*
X114596281Y-98021167D01*
X114604299Y-98016830D01*
X114619148Y-98008955D01*
X114630774Y-98002993D01*
X114637175Y-97999983D01*
X114639573Y-98000218D01*
X114644596Y-98003961D01*
X114652099Y-98012206D01*
X114662581Y-98025562D01*
X114676540Y-98044637D01*
X114694473Y-98070040D01*
X114703917Y-98083477D01*
X114722445Y-98109011D01*
X114737822Y-98128583D01*
X114750855Y-98142933D01*
X114762352Y-98152804D01*
X114773122Y-98158936D01*
X114783973Y-98162072D01*
X114795712Y-98162952D01*
X114804641Y-98162106D01*
X114822896Y-98156874D01*
X114840492Y-98148269D01*
X114853630Y-98137931D01*
X114855303Y-98136058D01*
X114858614Y-98130888D01*
X114857073Y-98126085D01*
X114850129Y-98118607D01*
X114849690Y-98118169D01*
X114841809Y-98111379D01*
X114835040Y-98109843D01*
X114825326Y-98112573D01*
X114819907Y-98114415D01*
X114805606Y-98117163D01*
X114794690Y-98114560D01*
X114784627Y-98106210D01*
X114783596Y-98105046D01*
X114777052Y-98096815D01*
X114767612Y-98084145D01*
X114756136Y-98068273D01*
X114743482Y-98050435D01*
X114730510Y-98031868D01*
X114718078Y-98013808D01*
X114707045Y-97997491D01*
X114698272Y-97984154D01*
X114692615Y-97975033D01*
X114690936Y-97971364D01*
X114692335Y-97970471D01*
X114699381Y-97966630D01*
X114709991Y-97961166D01*
X114715628Y-97958137D01*
X114724167Y-97952577D01*
X114727529Y-97948835D01*
X114725407Y-97942697D01*
X114718382Y-97933960D01*
X114709256Y-97926660D01*
X114700983Y-97923602D01*
X114699080Y-97924114D01*
X114690442Y-97927775D01*
X114676161Y-97934492D01*
X114657310Y-97943710D01*
X114634964Y-97954874D01*
X114610196Y-97967430D01*
X114584080Y-97980822D01*
X114557691Y-97994495D01*
X114532102Y-98007894D01*
X114508387Y-98020465D01*
X114487621Y-98031652D01*
X114470876Y-98040900D01*
X114459228Y-98047655D01*
X114453750Y-98051361D01*
X114453133Y-98052203D01*
X114236757Y-98052203D01*
X114248293Y-98046236D01*
X114272978Y-98033379D01*
X114302017Y-98018189D01*
X114334765Y-98001007D01*
X114370576Y-97982176D01*
X114408804Y-97962038D01*
X114448803Y-97940934D01*
X114489926Y-97919206D01*
X114531527Y-97897196D01*
X114572961Y-97875247D01*
X114613582Y-97853700D01*
X114652742Y-97832896D01*
X114689797Y-97813179D01*
X114724099Y-97794889D01*
X114755004Y-97778369D01*
X114781864Y-97763961D01*
X114804034Y-97752007D01*
X114820868Y-97742848D01*
X114831720Y-97736826D01*
X114835943Y-97734284D01*
X114835887Y-97731454D01*
X114832350Y-97723461D01*
X114825990Y-97712639D01*
X114818089Y-97701122D01*
X114809932Y-97691045D01*
X114808730Y-97691376D01*
X114801224Y-97694785D01*
X114787414Y-97701550D01*
X114767942Y-97711334D01*
X114743451Y-97723798D01*
X114714584Y-97738608D01*
X114681985Y-97755424D01*
X114668016Y-97762660D01*
X114646295Y-97773912D01*
X114608158Y-97793733D01*
X114568217Y-97814551D01*
X114527114Y-97836029D01*
X114485492Y-97857830D01*
X114443995Y-97879617D01*
X114403265Y-97901053D01*
X114363946Y-97921802D01*
X114326679Y-97941525D01*
X114292108Y-97959887D01*
X114260875Y-97976551D01*
X114233624Y-97991179D01*
X114210998Y-98003434D01*
X114193639Y-98012980D01*
X114182191Y-98019480D01*
X114177295Y-98022597D01*
X114177260Y-98026437D01*
X114025642Y-98026437D01*
X113997848Y-97986647D01*
X113961314Y-97934318D01*
X113925605Y-97883145D01*
X113891024Y-97833559D01*
X113857871Y-97785991D01*
X113826447Y-97740870D01*
X113799971Y-97702822D01*
X114191134Y-97702822D01*
X114194502Y-97721859D01*
X114204868Y-97740272D01*
X114220936Y-97754428D01*
X114226874Y-97757756D01*
X114239950Y-97762211D01*
X114248482Y-97760469D01*
X114252314Y-97753138D01*
X114251958Y-97748857D01*
X114257539Y-97748857D01*
X114257864Y-97753138D01*
X114258356Y-97759626D01*
X114262628Y-97774129D01*
X114274998Y-97790643D01*
X114295090Y-97804328D01*
X114299299Y-97806233D01*
X114315960Y-97810678D01*
X114334263Y-97812124D01*
X114351125Y-97810504D01*
X114363459Y-97805756D01*
X114368888Y-97800483D01*
X114382948Y-97800483D01*
X114392690Y-97808395D01*
X114394204Y-97809513D01*
X114407595Y-97814733D01*
X114424901Y-97816361D01*
X114443067Y-97814377D01*
X114459038Y-97808766D01*
X114466013Y-97804084D01*
X114477582Y-97791542D01*
X114485256Y-97776768D01*
X114487261Y-97762660D01*
X114486556Y-97758377D01*
X114483901Y-97754407D01*
X114477413Y-97752894D01*
X114464889Y-97752878D01*
X114445086Y-97756110D01*
X114424033Y-97764165D01*
X114405170Y-97775554D01*
X114391523Y-97788793D01*
X114391173Y-97789270D01*
X114382948Y-97800483D01*
X114368888Y-97800483D01*
X114369729Y-97799666D01*
X114372846Y-97789270D01*
X114369184Y-97777933D01*
X114359445Y-97766411D01*
X114344331Y-97755459D01*
X114324542Y-97745832D01*
X114300782Y-97738287D01*
X114290521Y-97736128D01*
X114278676Y-97735570D01*
X114268349Y-97738361D01*
X114266932Y-97738956D01*
X114259905Y-97743016D01*
X114257539Y-97748857D01*
X114251958Y-97748857D01*
X114251289Y-97740826D01*
X114245250Y-97724138D01*
X114234041Y-97703683D01*
X114227829Y-97694515D01*
X114216250Y-97681704D01*
X114206196Y-97676117D01*
X114198262Y-97677766D01*
X114193043Y-97686664D01*
X114191134Y-97702822D01*
X113799971Y-97702822D01*
X113797053Y-97698629D01*
X113769989Y-97659697D01*
X113753132Y-97635415D01*
X114179894Y-97635415D01*
X114182952Y-97647474D01*
X114188642Y-97658216D01*
X114195430Y-97664500D01*
X114201940Y-97664514D01*
X114203369Y-97663169D01*
X114225439Y-97663169D01*
X114229934Y-97681908D01*
X114240610Y-97698498D01*
X114257242Y-97711158D01*
X114268716Y-97715656D01*
X114287624Y-97717184D01*
X114304792Y-97711862D01*
X114312343Y-97705793D01*
X114331312Y-97705793D01*
X114332374Y-97723279D01*
X114339751Y-97739783D01*
X114353511Y-97753450D01*
X114356015Y-97755046D01*
X114373446Y-97761491D01*
X114392778Y-97762505D01*
X114411689Y-97758526D01*
X114427856Y-97749992D01*
X114438958Y-97737340D01*
X114440801Y-97733416D01*
X114444147Y-97715521D01*
X114440889Y-97697300D01*
X114434120Y-97685310D01*
X114456081Y-97685310D01*
X114457513Y-97703975D01*
X114461469Y-97715521D01*
X114463065Y-97720179D01*
X114472711Y-97731560D01*
X114473991Y-97732432D01*
X114485476Y-97737298D01*
X114496561Y-97735354D01*
X114509278Y-97726306D01*
X114516715Y-97718501D01*
X114521807Y-97708241D01*
X114524290Y-97693516D01*
X114525012Y-97683739D01*
X114524315Y-97666614D01*
X114519924Y-97653455D01*
X114511173Y-97641631D01*
X114507911Y-97638383D01*
X114496246Y-97631628D01*
X114484428Y-97632934D01*
X114471708Y-97642314D01*
X114465684Y-97650033D01*
X114460044Y-97663552D01*
X114458796Y-97666542D01*
X114456081Y-97685310D01*
X114434120Y-97685310D01*
X114431790Y-97681183D01*
X114417617Y-97669597D01*
X114408419Y-97666256D01*
X114390491Y-97663895D01*
X114371824Y-97665008D01*
X114356532Y-97669597D01*
X114347870Y-97675295D01*
X114336500Y-97689180D01*
X114331312Y-97705793D01*
X114312343Y-97705793D01*
X114318845Y-97700567D01*
X114328410Y-97684173D01*
X114332110Y-97663552D01*
X114330629Y-97650310D01*
X114323228Y-97633247D01*
X114311011Y-97619605D01*
X114295542Y-97610236D01*
X114278389Y-97605994D01*
X114261118Y-97607729D01*
X114245294Y-97616296D01*
X114235887Y-97626364D01*
X114227349Y-97644061D01*
X114225439Y-97663169D01*
X114203369Y-97663169D01*
X114203641Y-97662913D01*
X114208932Y-97654266D01*
X114215101Y-97640728D01*
X114221335Y-97624514D01*
X114226818Y-97607842D01*
X114230736Y-97592927D01*
X114232273Y-97581986D01*
X114231529Y-97578157D01*
X114228237Y-97576021D01*
X114237172Y-97576021D01*
X114238416Y-97581986D01*
X114238833Y-97583986D01*
X114246371Y-97592108D01*
X114247376Y-97592948D01*
X114256842Y-97599054D01*
X114264534Y-97601363D01*
X114266871Y-97601190D01*
X114281005Y-97597814D01*
X114327237Y-97597814D01*
X114328429Y-97606318D01*
X114335456Y-97622146D01*
X114347183Y-97636910D01*
X114361751Y-97647914D01*
X114365211Y-97649655D01*
X114385229Y-97655895D01*
X114404954Y-97656440D01*
X114422889Y-97651870D01*
X114437543Y-97642765D01*
X114447419Y-97629706D01*
X114451023Y-97613271D01*
X114450364Y-97607767D01*
X114444487Y-97593506D01*
X114434104Y-97579510D01*
X114421158Y-97568678D01*
X114412411Y-97564061D01*
X114394389Y-97558614D01*
X114434532Y-97558614D01*
X114436711Y-97566215D01*
X114443880Y-97578192D01*
X114454472Y-97591542D01*
X114466849Y-97604236D01*
X114478158Y-97613271D01*
X114479371Y-97614240D01*
X114482483Y-97616292D01*
X114493786Y-97623255D01*
X114500652Y-97625769D01*
X114504971Y-97624111D01*
X114508632Y-97618562D01*
X114510162Y-97614961D01*
X114510871Y-97601159D01*
X114505531Y-97586234D01*
X114495292Y-97571924D01*
X114481301Y-97559965D01*
X114464705Y-97552094D01*
X114462748Y-97551528D01*
X114447407Y-97548992D01*
X114444737Y-97549661D01*
X114437834Y-97551391D01*
X114434532Y-97558614D01*
X114394389Y-97558614D01*
X114392582Y-97558068D01*
X114373023Y-97557338D01*
X114355222Y-97561408D01*
X114340666Y-97569819D01*
X114330842Y-97582108D01*
X114327237Y-97597814D01*
X114281005Y-97597814D01*
X114285259Y-97596798D01*
X114303698Y-97588052D01*
X114319423Y-97576544D01*
X114329669Y-97563864D01*
X114333000Y-97556646D01*
X114333665Y-97549661D01*
X114329848Y-97542137D01*
X114319965Y-97533272D01*
X114305758Y-97529294D01*
X114289372Y-97530173D01*
X114272610Y-97535344D01*
X114257276Y-97544240D01*
X114245171Y-97556296D01*
X114238099Y-97570945D01*
X114237172Y-97576021D01*
X114228237Y-97576021D01*
X114225996Y-97574567D01*
X114216249Y-97576186D01*
X114203700Y-97582963D01*
X114203631Y-97583011D01*
X114188168Y-97597552D01*
X114180380Y-97614747D01*
X114179894Y-97635415D01*
X113753132Y-97635415D01*
X113745558Y-97624505D01*
X113724060Y-97593483D01*
X113705797Y-97567064D01*
X113691068Y-97545676D01*
X113680175Y-97529752D01*
X113677772Y-97526184D01*
X114080915Y-97526184D01*
X114090591Y-97535497D01*
X114091055Y-97535947D01*
X114097577Y-97543152D01*
X114100267Y-97547817D01*
X114102463Y-97550222D01*
X114110325Y-97555346D01*
X114121932Y-97561578D01*
X114146931Y-97571439D01*
X114170121Y-97574865D01*
X114189786Y-97571167D01*
X114205597Y-97560347D01*
X114213426Y-97549569D01*
X114217916Y-97534775D01*
X114219383Y-97523195D01*
X114219733Y-97521896D01*
X114320209Y-97521896D01*
X114321465Y-97527370D01*
X114325018Y-97529645D01*
X114335100Y-97533822D01*
X114348288Y-97537911D01*
X114365618Y-97541871D01*
X114385690Y-97545054D01*
X114403834Y-97546580D01*
X114418035Y-97546290D01*
X114426278Y-97544027D01*
X114427750Y-97539515D01*
X114423805Y-97532155D01*
X114415586Y-97523618D01*
X114404685Y-97515289D01*
X114392692Y-97508552D01*
X114381198Y-97504792D01*
X114377528Y-97504307D01*
X114363255Y-97504377D01*
X114349128Y-97506740D01*
X114348686Y-97506814D01*
X114335521Y-97510975D01*
X114325461Y-97516216D01*
X114320209Y-97521896D01*
X114219733Y-97521896D01*
X114221925Y-97513761D01*
X114222949Y-97506740D01*
X114220650Y-97496391D01*
X114218398Y-97492766D01*
X114209144Y-97484195D01*
X114196724Y-97476792D01*
X114184116Y-97472136D01*
X114174297Y-97471805D01*
X114168465Y-97473366D01*
X114156993Y-97475485D01*
X114139982Y-97480015D01*
X114118769Y-97491400D01*
X114098791Y-97508052D01*
X114080915Y-97526184D01*
X113677772Y-97526184D01*
X113673420Y-97519721D01*
X113671102Y-97516014D01*
X113671507Y-97515621D01*
X113677393Y-97512001D01*
X113689853Y-97504946D01*
X113708333Y-97494751D01*
X113732280Y-97481707D01*
X113761140Y-97466108D01*
X113790015Y-97450581D01*
X114241441Y-97450581D01*
X114241991Y-97464842D01*
X114246219Y-97477599D01*
X114253861Y-97486776D01*
X114264653Y-97490296D01*
X114273868Y-97491707D01*
X114284149Y-97496355D01*
X114291686Y-97499813D01*
X114305810Y-97501993D01*
X114321234Y-97501335D01*
X114334242Y-97497736D01*
X114338016Y-97495461D01*
X114347895Y-97483984D01*
X114354592Y-97467591D01*
X114357881Y-97448419D01*
X114357535Y-97428605D01*
X114353329Y-97410286D01*
X114345037Y-97395600D01*
X114340954Y-97391687D01*
X114335871Y-97390122D01*
X114327537Y-97390912D01*
X114313587Y-97393932D01*
X114301861Y-97397009D01*
X114289882Y-97400977D01*
X114283140Y-97404271D01*
X114280193Y-97406175D01*
X114277716Y-97405425D01*
X114277714Y-97405352D01*
X114275249Y-97405685D01*
X114269526Y-97410869D01*
X114262718Y-97417593D01*
X114256114Y-97422996D01*
X114252427Y-97425844D01*
X114244832Y-97436889D01*
X114241441Y-97450581D01*
X113790015Y-97450581D01*
X113794357Y-97448246D01*
X113831379Y-97428414D01*
X113871650Y-97406906D01*
X113914618Y-97384014D01*
X113959727Y-97360031D01*
X114006424Y-97335250D01*
X114054154Y-97309963D01*
X114102364Y-97284465D01*
X114150500Y-97259047D01*
X114198006Y-97234003D01*
X114244330Y-97209626D01*
X114288917Y-97186208D01*
X114331213Y-97164042D01*
X114370664Y-97143421D01*
X114406716Y-97124639D01*
X114438814Y-97107987D01*
X114466405Y-97093760D01*
X114488934Y-97082249D01*
X114505848Y-97073748D01*
X114516592Y-97068550D01*
X114520613Y-97066948D01*
X114521060Y-97067436D01*
X114525426Y-97073251D01*
X114534089Y-97085255D01*
X114546748Y-97103017D01*
X114563103Y-97126105D01*
X114582852Y-97154088D01*
X114605694Y-97186534D01*
X114631327Y-97223010D01*
X114659451Y-97263087D01*
X114689765Y-97306332D01*
X114721967Y-97352313D01*
X114755757Y-97400599D01*
X114789196Y-97448419D01*
X114790832Y-97450758D01*
G37*
%TD*%
%LPC*%
D14*
%TO.C,SW31*%
X46750000Y-177750000D03*
X53250000Y-177750000D03*
X46750000Y-182250000D03*
X53250000Y-182250000D03*
%TD*%
D15*
%TO.C,H5*%
X49000000Y-120000000D03*
%TD*%
D14*
%TO.C,SW14*%
X58750000Y-141750000D03*
X65250000Y-141750000D03*
X58750000Y-146250000D03*
X65250000Y-146250000D03*
%TD*%
%TO.C,SW35*%
X94750000Y-177750000D03*
X101250000Y-177750000D03*
X94750000Y-182250000D03*
X101250000Y-182250000D03*
%TD*%
%TO.C,SW8*%
X58750000Y-129750000D03*
X65250000Y-129750000D03*
X58750000Y-134250000D03*
X65250000Y-134250000D03*
%TD*%
%TO.C,SW29*%
X94750000Y-165750000D03*
X101250000Y-165750000D03*
X94750000Y-170250000D03*
X101250000Y-170250000D03*
%TD*%
%TO.C,SW2*%
X58750000Y-107750000D03*
X65250000Y-107750000D03*
X58750000Y-112250000D03*
X65250000Y-112250000D03*
%TD*%
%TO.C,SW17*%
X94750000Y-141750000D03*
X101250000Y-141750000D03*
X94750000Y-146250000D03*
X101250000Y-146250000D03*
%TD*%
%TO.C,SW22*%
X82750000Y-153750000D03*
X89250000Y-153750000D03*
X82750000Y-158250000D03*
X89250000Y-158250000D03*
%TD*%
%TO.C,SW26*%
X58750000Y-165750000D03*
X65250000Y-165750000D03*
X58750000Y-170250000D03*
X65250000Y-170250000D03*
%TD*%
%TO.C,SW33*%
X70750000Y-177750000D03*
X77250000Y-177750000D03*
X70750000Y-182250000D03*
X77250000Y-182250000D03*
%TD*%
%TO.C,SW7*%
X46750000Y-129750000D03*
X53250000Y-129750000D03*
X46750000Y-134250000D03*
X53250000Y-134250000D03*
%TD*%
%TO.C,SW30*%
X106750000Y-165750000D03*
X113250000Y-165750000D03*
X106750000Y-170250000D03*
X113250000Y-170250000D03*
%TD*%
%TO.C,SW1*%
X46750000Y-107750000D03*
X53250000Y-107750000D03*
X46750000Y-112250000D03*
X53250000Y-112250000D03*
%TD*%
D15*
%TO.C,H4*%
X115000000Y-187000000D03*
%TD*%
D14*
%TO.C,SW3*%
X70750000Y-107750000D03*
X77250000Y-107750000D03*
X70750000Y-112250000D03*
X77250000Y-112250000D03*
%TD*%
D15*
%TO.C,H3*%
X45000000Y-187000000D03*
%TD*%
D14*
%TO.C,SW19*%
X46750000Y-153750000D03*
X53250000Y-153750000D03*
X46750000Y-158250000D03*
X53250000Y-158250000D03*
%TD*%
%TO.C,SW28*%
X82750000Y-165750000D03*
X89250000Y-165750000D03*
X82750000Y-170250000D03*
X89250000Y-170250000D03*
%TD*%
%TO.C,SW16*%
X82750000Y-141750000D03*
X89250000Y-141750000D03*
X82750000Y-146250000D03*
X89250000Y-146250000D03*
%TD*%
%TO.C,SW36*%
X106750000Y-177750000D03*
X113250000Y-177750000D03*
X106750000Y-182250000D03*
X113250000Y-182250000D03*
%TD*%
%TO.C,SW25*%
X46750000Y-165750000D03*
X53250000Y-165750000D03*
X46750000Y-170250000D03*
X53250000Y-170250000D03*
%TD*%
%TO.C,SW34*%
X82750000Y-177750000D03*
X89250000Y-177750000D03*
X82750000Y-182250000D03*
X89250000Y-182250000D03*
%TD*%
%TO.C,SW12*%
X106750000Y-129750000D03*
X113250000Y-129750000D03*
X106750000Y-134250000D03*
X113250000Y-134250000D03*
%TD*%
D16*
%TO.C,J3*%
X61540000Y-96550000D03*
D17*
X64080000Y-96550000D03*
X66620000Y-96550000D03*
X69160000Y-96550000D03*
X71700000Y-96550000D03*
X74240000Y-96550000D03*
X76780000Y-96550000D03*
X79320000Y-96550000D03*
X81860000Y-96550000D03*
X84400000Y-96550000D03*
X86940000Y-96550000D03*
X89480000Y-96550000D03*
X91977257Y-96550000D03*
X94560000Y-96550000D03*
%TD*%
D14*
%TO.C,SW10*%
X82750000Y-129750000D03*
X89250000Y-129750000D03*
X82750000Y-134250000D03*
X89250000Y-134250000D03*
%TD*%
%TO.C,SW4*%
X82750000Y-107750000D03*
X89250000Y-107750000D03*
X82750000Y-112250000D03*
X89250000Y-112250000D03*
%TD*%
%TO.C,SW18*%
X106750000Y-141750000D03*
X113250000Y-141750000D03*
X106750000Y-146250000D03*
X113250000Y-146250000D03*
%TD*%
%TO.C,SW23*%
X94750000Y-153750000D03*
X101250000Y-153750000D03*
X94750000Y-158250000D03*
X101250000Y-158250000D03*
%TD*%
%TO.C,SW11*%
X94750000Y-129750000D03*
X101250000Y-129750000D03*
X94750000Y-134250000D03*
X101250000Y-134250000D03*
%TD*%
%TO.C,SW27*%
X70750000Y-165750000D03*
X77250000Y-165750000D03*
X70750000Y-170250000D03*
X77250000Y-170250000D03*
%TD*%
%TO.C,SW13*%
X46750000Y-141750000D03*
X53250000Y-141750000D03*
X46750000Y-146250000D03*
X53250000Y-146250000D03*
%TD*%
%TO.C,SW5*%
X94750000Y-107750000D03*
X101250000Y-107750000D03*
X94750000Y-112250000D03*
X101250000Y-112250000D03*
%TD*%
%TO.C,SW32*%
X58750000Y-177750000D03*
X65250000Y-177750000D03*
X58750000Y-182250000D03*
X65250000Y-182250000D03*
%TD*%
%TO.C,SW20*%
X58750000Y-153750000D03*
X65250000Y-153750000D03*
X58750000Y-158250000D03*
X65250000Y-158250000D03*
%TD*%
%TO.C,SW24*%
X106750000Y-153750000D03*
X113250000Y-153750000D03*
X106750000Y-158250000D03*
X113250000Y-158250000D03*
%TD*%
D15*
%TO.C,H1*%
X45000000Y-93000000D03*
%TD*%
D14*
%TO.C,SW21*%
X70750000Y-153750000D03*
X77250000Y-153750000D03*
X70750000Y-158250000D03*
X77250000Y-158250000D03*
%TD*%
%TO.C,SW15*%
X70750000Y-141750000D03*
X77250000Y-141750000D03*
X70750000Y-146250000D03*
X77250000Y-146250000D03*
%TD*%
%TO.C,SW6*%
X106750000Y-107750000D03*
X113250000Y-107750000D03*
X106750000Y-112250000D03*
X113250000Y-112250000D03*
%TD*%
D15*
%TO.C,H2*%
X115000000Y-93000000D03*
%TD*%
D14*
%TO.C,SW9*%
X70750000Y-129750000D03*
X77250000Y-129750000D03*
X70750000Y-134250000D03*
X77250000Y-134250000D03*
%TD*%
D18*
%TO.C,J1*%
X66802000Y-102220000D03*
D19*
X69342000Y-102220000D03*
X71882000Y-102220000D03*
X74422000Y-102220000D03*
X76962000Y-102220000D03*
X79502000Y-102220000D03*
X82042000Y-102220000D03*
X84582000Y-102220000D03*
X87122000Y-102220000D03*
X89662000Y-102220000D03*
X92202000Y-102220000D03*
X94742000Y-102220000D03*
X97282000Y-102220000D03*
X99822000Y-102220000D03*
X102362000Y-102220000D03*
X104902000Y-102220000D03*
X107442000Y-102220000D03*
X109982000Y-102220000D03*
X112522000Y-102220000D03*
X115062000Y-102220000D03*
%TD*%
D18*
%TO.C,J2*%
X115062000Y-120000000D03*
D19*
X112522000Y-120000000D03*
X109982000Y-120000000D03*
X107442000Y-120000000D03*
X104902000Y-120000000D03*
X102362000Y-120000000D03*
X99822000Y-120000000D03*
X97282000Y-120000000D03*
X94742000Y-120000000D03*
X92202000Y-120000000D03*
X89662000Y-120000000D03*
X87122000Y-120000000D03*
X84582000Y-120000000D03*
X82042000Y-120000000D03*
X79502000Y-120000000D03*
X76962000Y-120000000D03*
X74422000Y-120000000D03*
X71882000Y-120000000D03*
X69342000Y-120000000D03*
X66802000Y-120000000D03*
%TD*%
%LPD*%
M02*
