M48
; DRILL file KiCad 10.0.3 date 2026-07-04T09:26:36
; FORMAT={-:-/ absolute / metric / decimal}
; #@! TF.CreationDate,2026-07-04T09:26:36-05:00
; #@! TF.GenerationSoftware,Kicad,Pcbnew,10.0.3
; #@! TF.FileFunction,Plated,1,2,PTH
FMAT,2
METRIC
; #@! TA.AperFunction,Plated,PTH,ComponentDrill
T1C0.800
; #@! TA.AperFunction,Plated,PTH,ComponentDrill
T2C1.000
; #@! TA.AperFunction,Plated,PTH,ComponentDrill
T3C1.100
%
G90
G05
T1
X61.54Y-96.55
X64.08Y-96.55
X66.62Y-96.55
X69.16Y-96.55
X71.7Y-96.55
X74.24Y-96.55
X76.78Y-96.55
X79.32Y-96.55
X81.86Y-96.55
X84.4Y-96.55
X86.94Y-96.55
X89.48Y-96.55
X91.977Y-96.55
X94.56Y-96.55
T2
X66.802Y-102.22
X66.802Y-120.0
X69.342Y-102.22
X69.342Y-120.0
X71.882Y-102.22
X71.882Y-120.0
X74.422Y-102.22
X74.422Y-120.0
X76.962Y-102.22
X76.962Y-120.0
X79.502Y-102.22
X79.502Y-120.0
X82.042Y-102.22
X82.042Y-120.0
X84.582Y-102.22
X84.582Y-120.0
X87.122Y-102.22
X87.122Y-120.0
X89.662Y-102.22
X89.662Y-120.0
X92.202Y-102.22
X92.202Y-120.0
X94.742Y-102.22
X94.742Y-120.0
X97.282Y-102.22
X97.282Y-120.0
X99.822Y-102.22
X99.822Y-120.0
X102.362Y-102.22
X102.362Y-120.0
X104.902Y-102.22
X104.902Y-120.0
X107.442Y-102.22
X107.442Y-120.0
X109.982Y-102.22
X109.982Y-120.0
X112.522Y-102.22
X112.522Y-120.0
X115.062Y-102.22
X115.062Y-120.0
T3
X46.75Y-107.75
X46.75Y-112.25
X46.75Y-129.75
X46.75Y-134.25
X46.75Y-141.75
X46.75Y-146.25
X46.75Y-153.75
X46.75Y-158.25
X46.75Y-165.75
X46.75Y-170.25
X46.75Y-177.75
X46.75Y-182.25
X53.25Y-107.75
X53.25Y-112.25
X53.25Y-129.75
X53.25Y-134.25
X53.25Y-141.75
X53.25Y-146.25
X53.25Y-153.75
X53.25Y-158.25
X53.25Y-165.75
X53.25Y-170.25
X53.25Y-177.75
X53.25Y-182.25
X58.75Y-107.75
X58.75Y-112.25
X58.75Y-129.75
X58.75Y-134.25
X58.75Y-141.75
X58.75Y-146.25
X58.75Y-153.75
X58.75Y-158.25
X58.75Y-165.75
X58.75Y-170.25
X58.75Y-177.75
X58.75Y-182.25
X65.25Y-107.75
X65.25Y-112.25
X65.25Y-129.75
X65.25Y-134.25
X65.25Y-141.75
X65.25Y-146.25
X65.25Y-153.75
X65.25Y-158.25
X65.25Y-165.75
X65.25Y-170.25
X65.25Y-177.75
X65.25Y-182.25
X70.75Y-107.75
X70.75Y-112.25
X70.75Y-129.75
X70.75Y-134.25
X70.75Y-141.75
X70.75Y-146.25
X70.75Y-153.75
X70.75Y-158.25
X70.75Y-165.75
X70.75Y-170.25
X70.75Y-177.75
X70.75Y-182.25
X77.25Y-107.75
X77.25Y-112.25
X77.25Y-129.75
X77.25Y-134.25
X77.25Y-141.75
X77.25Y-146.25
X77.25Y-153.75
X77.25Y-158.25
X77.25Y-165.75
X77.25Y-170.25
X77.25Y-177.75
X77.25Y-182.25
X82.75Y-107.75
X82.75Y-112.25
X82.75Y-129.75
X82.75Y-134.25
X82.75Y-141.75
X82.75Y-146.25
X82.75Y-153.75
X82.75Y-158.25
X82.75Y-165.75
X82.75Y-170.25
X82.75Y-177.75
X82.75Y-182.25
X89.25Y-107.75
X89.25Y-112.25
X89.25Y-129.75
X89.25Y-134.25
X89.25Y-141.75
X89.25Y-146.25
X89.25Y-153.75
X89.25Y-158.25
X89.25Y-165.75
X89.25Y-170.25
X89.25Y-177.75
X89.25Y-182.25
X94.75Y-107.75
X94.75Y-112.25
X94.75Y-129.75
X94.75Y-134.25
X94.75Y-141.75
X94.75Y-146.25
X94.75Y-153.75
X94.75Y-158.25
X94.75Y-165.75
X94.75Y-170.25
X94.75Y-177.75
X94.75Y-182.25
X101.25Y-107.75
X101.25Y-112.25
X101.25Y-129.75
X101.25Y-134.25
X101.25Y-141.75
X101.25Y-146.25
X101.25Y-153.75
X101.25Y-158.25
X101.25Y-165.75
X101.25Y-170.25
X101.25Y-177.75
X101.25Y-182.25
X106.75Y-107.75
X106.75Y-112.25
X106.75Y-129.75
X106.75Y-134.25
X106.75Y-141.75
X106.75Y-146.25
X106.75Y-153.75
X106.75Y-158.25
X106.75Y-165.75
X106.75Y-170.25
X106.75Y-177.75
X106.75Y-182.25
X113.25Y-107.75
X113.25Y-112.25
X113.25Y-129.75
X113.25Y-134.25
X113.25Y-141.75
X113.25Y-146.25
X113.25Y-153.75
X113.25Y-158.25
X113.25Y-165.75
X113.25Y-170.25
X113.25Y-177.75
X113.25Y-182.25
M30
