%TF.GenerationSoftware,KiCad,Pcbnew,10.0.3*%
%TF.CreationDate,2026-06-24T21:00:32-05:00*%
%TF.ProjectId,calc-project,63616c63-2d70-4726-9f6a-6563742e6b69,rev?*%
%TF.SameCoordinates,Original*%
%TF.FileFunction,Copper,L1,Top*%
%TF.FilePolarity,Positive*%
%FSLAX46Y46*%
G04 Gerber Fmt 4.6, Leading zero omitted, Abs format (unit mm)*
G04 Created by KiCad (PCBNEW 10.0.3) date 2026-06-24 21:00:32*
%MOMM*%
%LPD*%
G01*
G04 APERTURE LIST*
%TA.AperFunction,ComponentPad*%
%ADD10C,2.000000*%
%TD*%
%TA.AperFunction,ComponentPad*%
%ADD11R,1.270000X1.270000*%
%TD*%
%TA.AperFunction,ComponentPad*%
%ADD12C,1.270000*%
%TD*%
%TA.AperFunction,ViaPad*%
%ADD13C,0.800000*%
%TD*%
%TA.AperFunction,Conductor*%
%ADD14C,0.200000*%
%TD*%
G04 APERTURE END LIST*
D10*
%TO.P,SW31,1,1_1*%
%TO.N,col 5*%
X46750000Y-177750000D03*
X53250000Y-177750000D03*
%TO.P,SW31,2,2_2*%
%TO.N,row 5*%
X46750000Y-182250000D03*
X53250000Y-182250000D03*
%TD*%
%TO.P,SW14,1,1_1*%
%TO.N,col 4*%
X58750000Y-141750000D03*
X65250000Y-141750000D03*
%TO.P,SW14,2,2_2*%
%TO.N,row 2*%
X58750000Y-146250000D03*
X65250000Y-146250000D03*
%TD*%
%TO.P,SW35,1,1_1*%
%TO.N,col 1*%
X94750000Y-177750000D03*
X101250000Y-177750000D03*
%TO.P,SW35,2,2_2*%
%TO.N,row 5*%
X94750000Y-182250000D03*
X101250000Y-182250000D03*
%TD*%
%TO.P,SW8,1,1_1*%
%TO.N,col 4*%
X58750000Y-129750000D03*
X65250000Y-129750000D03*
%TO.P,SW8,2,2_2*%
%TO.N,row 1*%
X58750000Y-134250000D03*
X65250000Y-134250000D03*
%TD*%
%TO.P,SW29,1,1_1*%
%TO.N,col 1*%
X94750000Y-165750000D03*
X101250000Y-165750000D03*
%TO.P,SW29,2,2_2*%
%TO.N,row 4*%
X94750000Y-170250000D03*
X101250000Y-170250000D03*
%TD*%
%TO.P,SW2,1,1_1*%
%TO.N,col 4*%
X58750000Y-107750000D03*
X65250000Y-107750000D03*
%TO.P,SW2,2,2_2*%
%TO.N,row 0*%
X58750000Y-112250000D03*
X65250000Y-112250000D03*
%TD*%
%TO.P,SW17,1,1_1*%
%TO.N,col 1*%
X94750000Y-141750000D03*
X101250000Y-141750000D03*
%TO.P,SW17,2,2_2*%
%TO.N,row 2*%
X94750000Y-146250000D03*
X101250000Y-146250000D03*
%TD*%
%TO.P,SW22,1,1_1*%
%TO.N,col 2*%
X82750000Y-153750000D03*
X89250000Y-153750000D03*
%TO.P,SW22,2,2_2*%
%TO.N,row 3*%
X82750000Y-158250000D03*
X89250000Y-158250000D03*
%TD*%
%TO.P,SW26,1,1_1*%
%TO.N,col 4*%
X58750000Y-165750000D03*
X65250000Y-165750000D03*
%TO.P,SW26,2,2_2*%
%TO.N,row 4*%
X58750000Y-170250000D03*
X65250000Y-170250000D03*
%TD*%
%TO.P,SW33,1,1_1*%
%TO.N,col 3*%
X70750000Y-177750000D03*
X77250000Y-177750000D03*
%TO.P,SW33,2,2_2*%
%TO.N,row 5*%
X70750000Y-182250000D03*
X77250000Y-182250000D03*
%TD*%
%TO.P,SW7,1,1_1*%
%TO.N,col 5*%
X46750000Y-129750000D03*
X53250000Y-129750000D03*
%TO.P,SW7,2,2_2*%
%TO.N,row 1*%
X46750000Y-134250000D03*
X53250000Y-134250000D03*
%TD*%
%TO.P,SW30,1,1_1*%
%TO.N,col 0*%
X106750000Y-165750000D03*
X113250000Y-165750000D03*
%TO.P,SW30,2,2_2*%
%TO.N,row 4*%
X106750000Y-170250000D03*
X113250000Y-170250000D03*
%TD*%
%TO.P,SW1,1,1_1*%
%TO.N,col 5*%
X46750000Y-107750000D03*
X53250000Y-107750000D03*
%TO.P,SW1,2,2_2*%
%TO.N,row 0*%
X46750000Y-112250000D03*
X53250000Y-112250000D03*
%TD*%
%TO.P,SW3,1,1_1*%
%TO.N,col 3*%
X70750000Y-107750000D03*
X77250000Y-107750000D03*
%TO.P,SW3,2,2_2*%
%TO.N,row 0*%
X70750000Y-112250000D03*
X77250000Y-112250000D03*
%TD*%
%TO.P,SW19,1,1_1*%
%TO.N,col 5*%
X46750000Y-153750000D03*
X53250000Y-153750000D03*
%TO.P,SW19,2,2_2*%
%TO.N,row 3*%
X46750000Y-158250000D03*
X53250000Y-158250000D03*
%TD*%
%TO.P,SW28,1,1_1*%
%TO.N,col 2*%
X82750000Y-165750000D03*
X89250000Y-165750000D03*
%TO.P,SW28,2,2_2*%
%TO.N,row 4*%
X82750000Y-170250000D03*
X89250000Y-170250000D03*
%TD*%
%TO.P,SW16,1,1_1*%
%TO.N,col 2*%
X82750000Y-141750000D03*
X89250000Y-141750000D03*
%TO.P,SW16,2,2_2*%
%TO.N,row 2*%
X82750000Y-146250000D03*
X89250000Y-146250000D03*
%TD*%
%TO.P,SW36,1,1_1*%
%TO.N,col 0*%
X106750000Y-177750000D03*
X113250000Y-177750000D03*
%TO.P,SW36,2,2_2*%
%TO.N,row 5*%
X106750000Y-182250000D03*
X113250000Y-182250000D03*
%TD*%
%TO.P,SW25,1,1_1*%
%TO.N,col 5*%
X46750000Y-165750000D03*
X53250000Y-165750000D03*
%TO.P,SW25,2,2_2*%
%TO.N,row 4*%
X46750000Y-170250000D03*
X53250000Y-170250000D03*
%TD*%
%TO.P,SW34,1,1_1*%
%TO.N,col 2*%
X82750000Y-177750000D03*
X89250000Y-177750000D03*
%TO.P,SW34,2,2_2*%
%TO.N,row 5*%
X82750000Y-182250000D03*
X89250000Y-182250000D03*
%TD*%
%TO.P,SW12,1,1_1*%
%TO.N,col 0*%
X106750000Y-129750000D03*
X113250000Y-129750000D03*
%TO.P,SW12,2,2_2*%
%TO.N,row 1*%
X106750000Y-134250000D03*
X113250000Y-134250000D03*
%TD*%
D11*
%TO.P,J3,1,Pin_1_1*%
%TO.N,+3.3V*%
X61540000Y-96550000D03*
D12*
%TO.P,J3,2,Pin_2_2*%
%TO.N,GND*%
X64080000Y-96550000D03*
%TO.P,J3,3,Pin_3_3*%
%TO.N,CS*%
X66620000Y-96550000D03*
%TO.P,J3,4,Pin_4_4*%
%TO.N,RESET*%
X69160000Y-96550000D03*
%TO.P,J3,5,Pin_5_5*%
%TO.N,DC_SELECT*%
X71700000Y-96550000D03*
%TO.P,J3,6,Pin_6_6*%
%TO.N,SDI(MOSI)*%
X74240000Y-96550000D03*
%TO.P,J3,7,Pin_7_7*%
%TO.N,SCK*%
X76780000Y-96550000D03*
%TO.P,J3,8,Pin_8_8*%
%TO.N,LED_CTRL*%
X79320000Y-96550000D03*
%TO.P,J3,9,Pin_9_9*%
%TO.N,unconnected-(J3-Pin_9-Pad9)*%
X81860000Y-96550000D03*
%TO.P,J3,10,Pin_10_10*%
%TO.N,unconnected-(J3-Pin_10-Pad10)*%
X84400000Y-96550000D03*
%TO.P,J3,11,Pin_11_11*%
%TO.N,unconnected-(J3-Pin_11-Pad11)*%
X86940000Y-96550000D03*
%TO.P,J3,12,Pin_12_12*%
%TO.N,unconnected-(J3-Pin_12-Pad12)*%
X89480000Y-96550000D03*
%TO.P,J3,13,Pin_13_13*%
%TO.N,unconnected-(J3-Pin_13-Pad13)*%
X91977257Y-96550000D03*
%TO.P,J3,14,Pin_14_14*%
%TO.N,unconnected-(J3-Pin_14-Pad14)*%
X94560000Y-96550000D03*
%TD*%
D10*
%TO.P,SW10,1,1_1*%
%TO.N,col 2*%
X82750000Y-129750000D03*
X89250000Y-129750000D03*
%TO.P,SW10,2,2_2*%
%TO.N,row 1*%
X82750000Y-134250000D03*
X89250000Y-134250000D03*
%TD*%
%TO.P,SW4,1,1_1*%
%TO.N,col 2*%
X82750000Y-107750000D03*
X89250000Y-107750000D03*
%TO.P,SW4,2,2_2*%
%TO.N,row 0*%
X82750000Y-112250000D03*
X89250000Y-112250000D03*
%TD*%
%TO.P,SW18,1,1_1*%
%TO.N,col 0*%
X106750000Y-141750000D03*
X113250000Y-141750000D03*
%TO.P,SW18,2,2_2*%
%TO.N,row 2*%
X106750000Y-146250000D03*
X113250000Y-146250000D03*
%TD*%
%TO.P,SW23,1,1_1*%
%TO.N,col 1*%
X94750000Y-153750000D03*
X101250000Y-153750000D03*
%TO.P,SW23,2,2_2*%
%TO.N,row 3*%
X94750000Y-158250000D03*
X101250000Y-158250000D03*
%TD*%
%TO.P,SW11,1,1_1*%
%TO.N,col 1*%
X94750000Y-129750000D03*
X101250000Y-129750000D03*
%TO.P,SW11,2,2_2*%
%TO.N,row 1*%
X94750000Y-134250000D03*
X101250000Y-134250000D03*
%TD*%
%TO.P,SW27,1,1_1*%
%TO.N,col 3*%
X70750000Y-165750000D03*
X77250000Y-165750000D03*
%TO.P,SW27,2,2_2*%
%TO.N,row 4*%
X70750000Y-170250000D03*
X77250000Y-170250000D03*
%TD*%
%TO.P,SW13,1,1_1*%
%TO.N,col 5*%
X46750000Y-141750000D03*
X53250000Y-141750000D03*
%TO.P,SW13,2,2_2*%
%TO.N,row 2*%
X46750000Y-146250000D03*
X53250000Y-146250000D03*
%TD*%
%TO.P,SW5,1,1_1*%
%TO.N,col 1*%
X94750000Y-107750000D03*
X101250000Y-107750000D03*
%TO.P,SW5,2,2_2*%
%TO.N,row 0*%
X94750000Y-112250000D03*
X101250000Y-112250000D03*
%TD*%
%TO.P,SW32,1,1_1*%
%TO.N,col 4*%
X58750000Y-177750000D03*
X65250000Y-177750000D03*
%TO.P,SW32,2,2_2*%
%TO.N,row 5*%
X58750000Y-182250000D03*
X65250000Y-182250000D03*
%TD*%
%TO.P,SW20,1,1_1*%
%TO.N,col 4*%
X58750000Y-153750000D03*
X65250000Y-153750000D03*
%TO.P,SW20,2,2_2*%
%TO.N,row 3*%
X58750000Y-158250000D03*
X65250000Y-158250000D03*
%TD*%
%TO.P,SW24,1,1_1*%
%TO.N,col 0*%
X106750000Y-153750000D03*
X113250000Y-153750000D03*
%TO.P,SW24,2,2_2*%
%TO.N,row 3*%
X106750000Y-158250000D03*
X113250000Y-158250000D03*
%TD*%
%TO.P,SW21,1,1_1*%
%TO.N,col 3*%
X70750000Y-153750000D03*
X77250000Y-153750000D03*
%TO.P,SW21,2,2_2*%
%TO.N,row 3*%
X70750000Y-158250000D03*
X77250000Y-158250000D03*
%TD*%
%TO.P,SW15,1,1_1*%
%TO.N,col 3*%
X70750000Y-141750000D03*
X77250000Y-141750000D03*
%TO.P,SW15,2,2_2*%
%TO.N,row 2*%
X70750000Y-146250000D03*
X77250000Y-146250000D03*
%TD*%
%TO.P,SW6,1,1_1*%
%TO.N,col 0*%
X106750000Y-107750000D03*
X113250000Y-107750000D03*
%TO.P,SW6,2,2_2*%
%TO.N,row 0*%
X106750000Y-112250000D03*
X113250000Y-112250000D03*
%TD*%
%TO.P,SW9,1,1_1*%
%TO.N,col 3*%
X70750000Y-129750000D03*
X77250000Y-129750000D03*
%TO.P,SW9,2,2_2*%
%TO.N,row 1*%
X70750000Y-134250000D03*
X77250000Y-134250000D03*
%TD*%
D13*
%TO.N,row 2*%
X82640000Y-126750000D03*
%TO.N,col 5*%
X88130000Y-125410000D03*
%TD*%
%TO.N,col 5*%
D14*
X55620000Y-123270000D02*
X57740000Y-125390000D01*
X53250000Y-107750000D02*
X53250000Y-109164213D01*
X53250000Y-109164213D02*
X55620000Y-111534213D01*
X55620000Y-111534213D02*
X55620000Y-123270000D01*
X88130000Y-125410000D02*
X88110000Y-125390000D01*
X88110000Y-125390000D02*
X57740000Y-125390000D01*
X57610000Y-125390000D02*
X53250000Y-129750000D01*
X57740000Y-125390000D02*
X57610000Y-125390000D01*
%TO.N,row 5*%
X46750000Y-182250000D02*
X113250000Y-182250000D01*
%TO.N,row 2*%
X106750000Y-146250000D02*
X113250000Y-146250000D01*
X82750000Y-146250000D02*
X77250000Y-146250000D01*
X94750000Y-146250000D02*
X101250000Y-146250000D01*
X82750000Y-146250000D02*
X89250000Y-146250000D01*
X101250000Y-146250000D02*
X106750000Y-146250000D01*
X70750000Y-146250000D02*
X77250000Y-146250000D01*
X65250000Y-146250000D02*
X70750000Y-146250000D01*
X58750000Y-146250000D02*
X65250000Y-146250000D01*
%TO.N,col 1*%
X94750000Y-177750000D02*
X101250000Y-177750000D01*
X101250000Y-165750000D02*
X94750000Y-165750000D01*
X94750000Y-153750000D02*
X101250000Y-153750000D01*
%TO.N,row 1*%
X89250000Y-134250000D02*
X82750000Y-134250000D01*
X65250000Y-134250000D02*
X58750000Y-134250000D01*
X113250000Y-134250000D02*
X106750000Y-134250000D01*
X65250000Y-134250000D02*
X70750000Y-134250000D01*
X101250000Y-134250000D02*
X94750000Y-134250000D01*
X101250000Y-134250000D02*
X106750000Y-134250000D01*
X77250000Y-134250000D02*
X70750000Y-134250000D01*
%TO.N,row 4*%
X94750000Y-170250000D02*
X101250000Y-170250000D01*
X101250000Y-170250000D02*
X106750000Y-170250000D01*
X65250000Y-170250000D02*
X70750000Y-170250000D01*
X70750000Y-170250000D02*
X77250000Y-170250000D01*
X82750000Y-170250000D02*
X89250000Y-170250000D01*
X58750000Y-170250000D02*
X65250000Y-170250000D01*
X113250000Y-170250000D02*
X106750000Y-170250000D01*
%TO.N,row 0*%
X94750000Y-112250000D02*
X101250000Y-112250000D01*
X89250000Y-112250000D02*
X94750000Y-112250000D01*
X58750000Y-112250000D02*
X65250000Y-112250000D01*
X46750000Y-112250000D02*
X53250000Y-112250000D01*
X101250000Y-112250000D02*
X106750000Y-112250000D01*
X106750000Y-112250000D02*
X113250000Y-112250000D01*
%TO.N,col 2*%
X90550000Y-155050000D02*
X89250000Y-153750000D01*
X90550000Y-140450000D02*
X89250000Y-141750000D01*
X90550000Y-167050000D02*
X89250000Y-165750000D01*
X89250000Y-153750000D02*
X90550000Y-152450000D01*
X89250000Y-165750000D02*
X90550000Y-164450000D01*
X90550000Y-143050000D02*
X89250000Y-141750000D01*
X89250000Y-177750000D02*
X90550000Y-176450000D01*
X90550000Y-176450000D02*
X90550000Y-167050000D01*
X82750000Y-153750000D02*
X89250000Y-153750000D01*
X90550000Y-164450000D02*
X90550000Y-155050000D01*
X89250000Y-165750000D02*
X82750000Y-165750000D01*
X90550000Y-152450000D02*
X90550000Y-143050000D01*
X82750000Y-177750000D02*
X89250000Y-177750000D01*
X89250000Y-129750000D02*
X90550000Y-131050000D01*
X90550000Y-131050000D02*
X90550000Y-140450000D01*
X82750000Y-129750000D02*
X89250000Y-129750000D01*
X89250000Y-141750000D02*
X82750000Y-141750000D01*
%TO.N,row 3*%
X106750000Y-158250000D02*
X101250000Y-158250000D01*
X94750000Y-158250000D02*
X101250000Y-158250000D01*
X77250000Y-158250000D02*
X82750000Y-158250000D01*
X58750000Y-158250000D02*
X65250000Y-158250000D01*
X70750000Y-158250000D02*
X77250000Y-158250000D01*
X106750000Y-158250000D02*
X113250000Y-158250000D01*
X65250000Y-158250000D02*
X70750000Y-158250000D01*
%TO.N,col 3*%
X70750000Y-153750000D02*
X77250000Y-153750000D01*
X70750000Y-141750000D02*
X77250000Y-141750000D01*
X78550000Y-131050000D02*
X77250000Y-129750000D01*
X70750000Y-129750000D02*
X77250000Y-129750000D01*
X78550000Y-140450000D02*
X78550000Y-131050000D01*
X77250000Y-141750000D02*
X78550000Y-140450000D01*
%TO.N,col 0*%
X113250000Y-107750000D02*
X106750000Y-107750000D01*
%TO.N,row 2*%
X80690000Y-128700000D02*
X80690000Y-144190000D01*
X80690000Y-144190000D02*
X82750000Y-146250000D01*
X82640000Y-126750000D02*
X80690000Y-128700000D01*
%TD*%
M02*
