%TF.GenerationSoftware,KiCad,Pcbnew,10.0.3*%
%TF.CreationDate,2026-06-24T21:00:32-05:00*%
%TF.ProjectId,calc-project,63616c63-2d70-4726-9f6a-6563742e6b69,rev?*%
%TF.SameCoordinates,Original*%
%TF.FileFunction,Legend,Bot*%
%TF.FilePolarity,Positive*%
%FSLAX46Y46*%
G04 Gerber Fmt 4.6, Leading zero omitted, Abs format (unit mm)*
G04 Created by KiCad (PCBNEW 10.0.3) date 2026-06-24 21:00:32*
%MOMM*%
%LPD*%
G01*
G04 APERTURE LIST*
%ADD10C,0.150000*%
%ADD11C,0.120000*%
%ADD12C,2.000000*%
%ADD13C,2.100000*%
%ADD14R,1.270000X1.270000*%
%ADD15C,1.270000*%
%ADD16R,1.000000X1.900000*%
G04 APERTURE END LIST*
D10*
X116454819Y-101656666D02*
X117169104Y-101656666D01*
X117169104Y-101656666D02*
X117311961Y-101609047D01*
X117311961Y-101609047D02*
X117407200Y-101513809D01*
X117407200Y-101513809D02*
X117454819Y-101370952D01*
X117454819Y-101370952D02*
X117454819Y-101275714D01*
X117454819Y-102656666D02*
X117454819Y-102085238D01*
X117454819Y-102370952D02*
X116454819Y-102370952D01*
X116454819Y-102370952D02*
X116597676Y-102275714D01*
X116597676Y-102275714D02*
X116692914Y-102180476D01*
X116692914Y-102180476D02*
X116740533Y-102085238D01*
%TO.C,J1*%
D11*
X64440000Y-103320000D02*
X64440000Y-100660000D01*
X65110000Y-100660000D02*
X64440000Y-100660000D01*
X67650000Y-103320000D02*
X64440000Y-103320000D01*
X70190000Y-100660000D02*
X66630000Y-100660000D01*
X72730000Y-103320000D02*
X69170000Y-103320000D01*
X75270000Y-100660000D02*
X71710000Y-100660000D01*
X77810000Y-103320000D02*
X74250000Y-103320000D01*
X80350000Y-100660000D02*
X76790000Y-100660000D01*
X82890000Y-103320000D02*
X79330000Y-103320000D01*
X85430000Y-100660000D02*
X81870000Y-100660000D01*
X87970000Y-103320000D02*
X84410000Y-103320000D01*
X90510000Y-100660000D02*
X86950000Y-100660000D01*
X93050000Y-103320000D02*
X89490000Y-103320000D01*
X95590000Y-100660000D02*
X92030000Y-100660000D01*
X98130000Y-103320000D02*
X94570000Y-103320000D01*
X100670000Y-100660000D02*
X97110000Y-100660000D01*
X103210000Y-103320000D02*
X99650000Y-103320000D01*
X105750000Y-100660000D02*
X102190000Y-100660000D01*
X108290000Y-103320000D02*
X104730000Y-103320000D01*
X110830000Y-100660000D02*
X107270000Y-100660000D01*
X113370000Y-103320000D02*
X109810000Y-103320000D01*
X114890000Y-104530000D02*
X114890000Y-103320000D01*
X115560000Y-100660000D02*
X112350000Y-100660000D01*
X115560000Y-103320000D02*
X114890000Y-103320000D01*
X115560000Y-103320000D02*
X115560000Y-100660000D01*
%TO.C,J2*%
X64440000Y-121080000D02*
X64440000Y-118420000D01*
X65110000Y-118420000D02*
X64440000Y-118420000D01*
X67650000Y-121080000D02*
X64440000Y-121080000D01*
X70190000Y-118420000D02*
X66630000Y-118420000D01*
X72730000Y-121080000D02*
X69170000Y-121080000D01*
X75270000Y-118420000D02*
X71710000Y-118420000D01*
X77810000Y-121080000D02*
X74250000Y-121080000D01*
X80350000Y-118420000D02*
X76790000Y-118420000D01*
X82890000Y-121080000D02*
X79330000Y-121080000D01*
X85430000Y-118420000D02*
X81870000Y-118420000D01*
X87970000Y-121080000D02*
X84410000Y-121080000D01*
X90510000Y-118420000D02*
X86950000Y-118420000D01*
X93050000Y-121080000D02*
X89490000Y-121080000D01*
X95590000Y-118420000D02*
X92030000Y-118420000D01*
X98130000Y-121080000D02*
X94570000Y-121080000D01*
X100670000Y-118420000D02*
X97110000Y-118420000D01*
X103210000Y-121080000D02*
X99650000Y-121080000D01*
X105750000Y-118420000D02*
X102190000Y-118420000D01*
X108290000Y-121080000D02*
X104730000Y-121080000D01*
X110830000Y-118420000D02*
X107270000Y-118420000D01*
X113370000Y-121080000D02*
X109810000Y-121080000D01*
X114890000Y-122290000D02*
X114890000Y-121080000D01*
X115560000Y-118420000D02*
X112350000Y-118420000D01*
X115560000Y-121080000D02*
X114890000Y-121080000D01*
X115560000Y-121080000D02*
X115560000Y-118420000D01*
%TD*%
%LPC*%
D12*
%TO.C,SW31*%
X46750000Y-177750000D03*
X53250000Y-177750000D03*
X46750000Y-182250000D03*
X53250000Y-182250000D03*
%TD*%
D13*
%TO.C,H5*%
X49000000Y-120000000D03*
%TD*%
D12*
%TO.C,SW14*%
X58750000Y-141750000D03*
X65250000Y-141750000D03*
X58750000Y-146250000D03*
X65250000Y-146250000D03*
%TD*%
%TO.C,SW35*%
X94750000Y-177750000D03*
X101250000Y-177750000D03*
X94750000Y-182250000D03*
X101250000Y-182250000D03*
%TD*%
%TO.C,SW8*%
X58750000Y-129750000D03*
X65250000Y-129750000D03*
X58750000Y-134250000D03*
X65250000Y-134250000D03*
%TD*%
%TO.C,SW29*%
X94750000Y-165750000D03*
X101250000Y-165750000D03*
X94750000Y-170250000D03*
X101250000Y-170250000D03*
%TD*%
%TO.C,SW2*%
X58750000Y-107750000D03*
X65250000Y-107750000D03*
X58750000Y-112250000D03*
X65250000Y-112250000D03*
%TD*%
%TO.C,SW17*%
X94750000Y-141750000D03*
X101250000Y-141750000D03*
X94750000Y-146250000D03*
X101250000Y-146250000D03*
%TD*%
%TO.C,SW22*%
X82750000Y-153750000D03*
X89250000Y-153750000D03*
X82750000Y-158250000D03*
X89250000Y-158250000D03*
%TD*%
%TO.C,SW26*%
X58750000Y-165750000D03*
X65250000Y-165750000D03*
X58750000Y-170250000D03*
X65250000Y-170250000D03*
%TD*%
%TO.C,SW33*%
X70750000Y-177750000D03*
X77250000Y-177750000D03*
X70750000Y-182250000D03*
X77250000Y-182250000D03*
%TD*%
%TO.C,SW7*%
X46750000Y-129750000D03*
X53250000Y-129750000D03*
X46750000Y-134250000D03*
X53250000Y-134250000D03*
%TD*%
%TO.C,SW30*%
X106750000Y-165750000D03*
X113250000Y-165750000D03*
X106750000Y-170250000D03*
X113250000Y-170250000D03*
%TD*%
%TO.C,SW1*%
X46750000Y-107750000D03*
X53250000Y-107750000D03*
X46750000Y-112250000D03*
X53250000Y-112250000D03*
%TD*%
D13*
%TO.C,H4*%
X115000000Y-187000000D03*
%TD*%
D12*
%TO.C,SW3*%
X70750000Y-107750000D03*
X77250000Y-107750000D03*
X70750000Y-112250000D03*
X77250000Y-112250000D03*
%TD*%
D13*
%TO.C,H3*%
X45000000Y-187000000D03*
%TD*%
D12*
%TO.C,SW19*%
X46750000Y-153750000D03*
X53250000Y-153750000D03*
X46750000Y-158250000D03*
X53250000Y-158250000D03*
%TD*%
%TO.C,SW28*%
X82750000Y-165750000D03*
X89250000Y-165750000D03*
X82750000Y-170250000D03*
X89250000Y-170250000D03*
%TD*%
%TO.C,SW16*%
X82750000Y-141750000D03*
X89250000Y-141750000D03*
X82750000Y-146250000D03*
X89250000Y-146250000D03*
%TD*%
%TO.C,SW36*%
X106750000Y-177750000D03*
X113250000Y-177750000D03*
X106750000Y-182250000D03*
X113250000Y-182250000D03*
%TD*%
%TO.C,SW25*%
X46750000Y-165750000D03*
X53250000Y-165750000D03*
X46750000Y-170250000D03*
X53250000Y-170250000D03*
%TD*%
%TO.C,SW34*%
X82750000Y-177750000D03*
X89250000Y-177750000D03*
X82750000Y-182250000D03*
X89250000Y-182250000D03*
%TD*%
%TO.C,SW12*%
X106750000Y-129750000D03*
X113250000Y-129750000D03*
X106750000Y-134250000D03*
X113250000Y-134250000D03*
%TD*%
D14*
%TO.C,J3*%
X61540000Y-96550000D03*
D15*
X64080000Y-96550000D03*
X66620000Y-96550000D03*
X69160000Y-96550000D03*
X71700000Y-96550000D03*
X74240000Y-96550000D03*
X76780000Y-96550000D03*
X79320000Y-96550000D03*
X81860000Y-96550000D03*
X84400000Y-96550000D03*
X86940000Y-96550000D03*
X89480000Y-96550000D03*
X91977257Y-96550000D03*
X94560000Y-96550000D03*
%TD*%
D12*
%TO.C,SW10*%
X82750000Y-129750000D03*
X89250000Y-129750000D03*
X82750000Y-134250000D03*
X89250000Y-134250000D03*
%TD*%
%TO.C,SW4*%
X82750000Y-107750000D03*
X89250000Y-107750000D03*
X82750000Y-112250000D03*
X89250000Y-112250000D03*
%TD*%
%TO.C,SW18*%
X106750000Y-141750000D03*
X113250000Y-141750000D03*
X106750000Y-146250000D03*
X113250000Y-146250000D03*
%TD*%
%TO.C,SW23*%
X94750000Y-153750000D03*
X101250000Y-153750000D03*
X94750000Y-158250000D03*
X101250000Y-158250000D03*
%TD*%
%TO.C,SW11*%
X94750000Y-129750000D03*
X101250000Y-129750000D03*
X94750000Y-134250000D03*
X101250000Y-134250000D03*
%TD*%
%TO.C,SW27*%
X70750000Y-165750000D03*
X77250000Y-165750000D03*
X70750000Y-170250000D03*
X77250000Y-170250000D03*
%TD*%
%TO.C,SW13*%
X46750000Y-141750000D03*
X53250000Y-141750000D03*
X46750000Y-146250000D03*
X53250000Y-146250000D03*
%TD*%
%TO.C,SW5*%
X94750000Y-107750000D03*
X101250000Y-107750000D03*
X94750000Y-112250000D03*
X101250000Y-112250000D03*
%TD*%
%TO.C,SW32*%
X58750000Y-177750000D03*
X65250000Y-177750000D03*
X58750000Y-182250000D03*
X65250000Y-182250000D03*
%TD*%
%TO.C,SW20*%
X58750000Y-153750000D03*
X65250000Y-153750000D03*
X58750000Y-158250000D03*
X65250000Y-158250000D03*
%TD*%
%TO.C,SW24*%
X106750000Y-153750000D03*
X113250000Y-153750000D03*
X106750000Y-158250000D03*
X113250000Y-158250000D03*
%TD*%
D13*
%TO.C,H1*%
X45000000Y-93000000D03*
%TD*%
D12*
%TO.C,SW21*%
X70750000Y-153750000D03*
X77250000Y-153750000D03*
X70750000Y-158250000D03*
X77250000Y-158250000D03*
%TD*%
%TO.C,SW15*%
X70750000Y-141750000D03*
X77250000Y-141750000D03*
X70750000Y-146250000D03*
X77250000Y-146250000D03*
%TD*%
%TO.C,SW6*%
X106750000Y-107750000D03*
X113250000Y-107750000D03*
X106750000Y-112250000D03*
X113250000Y-112250000D03*
%TD*%
D13*
%TO.C,H2*%
X115000000Y-93000000D03*
%TD*%
D12*
%TO.C,SW9*%
X70750000Y-129750000D03*
X77250000Y-129750000D03*
X70750000Y-134250000D03*
X77250000Y-134250000D03*
%TD*%
D16*
%TO.C,J1*%
X65870000Y-100340000D03*
X68410000Y-103640000D03*
X70950000Y-100340000D03*
X73490000Y-103640000D03*
X76030000Y-100340000D03*
X78570000Y-103640000D03*
X81110000Y-100340000D03*
X83650000Y-103640000D03*
X86190000Y-100340000D03*
X88730000Y-103640000D03*
X91270000Y-100340000D03*
X93810000Y-103640000D03*
X96350000Y-100340000D03*
X98890000Y-103640000D03*
X101430000Y-100340000D03*
X103970000Y-103640000D03*
X106510000Y-100340000D03*
X109050000Y-103640000D03*
X111590000Y-100340000D03*
X114130000Y-103640000D03*
%TD*%
%TO.C,J2*%
X114130000Y-121400000D03*
X111590000Y-118100000D03*
X109050000Y-121400000D03*
X106510000Y-118100000D03*
X103970000Y-121400000D03*
X101430000Y-118100000D03*
X98890000Y-121400000D03*
X96350000Y-118100000D03*
X93810000Y-121400000D03*
X91270000Y-118100000D03*
X88730000Y-121400000D03*
X86190000Y-118100000D03*
X83650000Y-121400000D03*
X81110000Y-118100000D03*
X78570000Y-121400000D03*
X76030000Y-118100000D03*
X73490000Y-121400000D03*
X70950000Y-118100000D03*
X68410000Y-121400000D03*
X65870000Y-118100000D03*
%TD*%
%LPD*%
M02*
